<svg height="16mm" viewBox="0 0 16 16" width="16mm" xmlns="http://www.w3.org/2000/svg"><g stroke="#000"><path d="m1.07363 4.746575h13.844177v10.284246h-13.844177z" fill="#0ff" stroke-width=".264583"/><path d="m4.6613914 14.992516 3.275611-4.990253-3.0878372.921622 4.4648455-5.7320465.020861-.044957.7928233-.4270936" fill="#0ff" stroke-width=".202802"/><path d="m7.1467915 15.07013 3.2756115-4.990253-3.0878377.921622 4.4648457-5.7320461.02086-.044957.792823-.4270936" stroke-width=".202802"/><g stroke-width=".106785" transform="scale(.26458333)"><path d="m19.648366 40.381273c0-.03275 3.603384-4.685258 8.007519-10.338904l8.00752-10.279357 1.139062-.617942 1.139063-.617942 4.01462.0014 4.014619.0014-.800884.441927c-.440487.24306-.833249.494703-.872806.559208-.03956.0645-3.138412 4.05856-6.886346 8.875681l-6.814425 8.7584-5.34049 1.590952c-2.93727.875023-5.400557 1.612044-5.473971 1.637826-.07342.02578-.133481.02008-.133481-.01267z"/><path d="m18.640437 55.928433c2.759441-4.236701 8.972185-13.679131 9.068444-13.782661.126883-.136469 8.255999-2.611477 8.395625-2.55615.142964.05665-7.230097 13.730702-8.180334 15.171213l-.961061 1.456922-4.256969.0022-4.256969.0022z"/></g></g></svg>