<svg height="16mm" viewBox="0 0 16 16" width="16mm" xmlns="http://www.w3.org/2000/svg"><g fill="#008080" stroke-width=".264583"><path d="m7.3251226 1.3739767c-.2059088.1444232-.4129789.2869282-.6137283.4385581-.2672308.2039728-.524728.4204453-.7766106.6430016-.201505.1795843-.3950292.3677334-.5826905.5616568-.1494547.1543317-.2959798.3111254-.4394713.4709705-.1326703.1459801-.2561236.2996507-.3824685.4509997-.1692828.1975993-.3245413.4063773-.4844991.6113873-.2271128.3033855-.4707268.5934967-.6970522.8975048-.2445811.3400594-.4855866.6826763-.7100666 1.0363993-.196549.3066214-.3745621.6241203-.5373395.9497767-.126424.2549718-.2248805.5223613-.2913232.7991451-.042403.1766411-.06159.3047772-.092316.4829899-.064575.3920533-.086408.7889574-.097126 1.1855683-.00543.2935132-.00395.5870942-.00325.8806402.011056.215465-.016124.434097.00877.648977.0072.06214.020303.123461.030454.185192.059212.304512.1828248.587639.3162033.865581.1433424.300474.3183991.583583.4888753.868933.1021445.178854.218404.348352.3441382.511242.1649997.195977.3441239.379224.5348036.550146.1294998.110514.2572329.226555.4033589.315408.1150747.06997.2039355.110731.3224805.168955.4105135.166484.8446815.26427 1.276274.358659.3266186.06875.6527882.14085.9836468.186116.2360258.02891.4739214.03271.7113741.03435.2070147.000556.4140297-.000291.6210437-.000793.2108166.0013.4214069-.01083.6320642-.01781.2696387-.000058.5345774-.05441.7945577-.120966.1614885-.04899.3245623-.09257.4862748-.140722.1818053-.06399.3690702-.111066.5552771-.16045.20605-.04767.404581-.116377.596851-.203735.14754-.0602.287018-.134529.41582-.228305.108712-.08686.20075-.191767.296013-.292604.03477-.04336.07528-.08135.110391-.124402.02427-.02976.04481-.06123.07128-.08876.0931-.08952.201853-.163082.306101-.239382.09692-.07487.194487-.148906.279874-.237177.06476-.06694.08676-.09873.146174-.173586.150619-.193618.29569-.391621.433896-.594284.07711-.117867.159246-.235655.212293-.367107.03287-.08145.05141-.155571.07475-.23917.06201-.234993.111645-.472973.148532-.713132.03891-.273066.05958-.548064.07115-.823491.0096-.315027.0097-.630233.01-.9453725.000069-.2812362-.000234-.5624721-.000423-.8437081-.0032-.1546238.0039-.3095169-.000156-.464114-.003459-.1308001-.010523-.1954121-.021146-.3276803-.036462-.4063253-.083127-.8116781-.152391-1.2137575-.055296-.2848234-.098293-.5738741-.178244-.8533537-.016211-.0566679-.035528-.1124013-.053292-.168602-.129116-.3515815-.320154-.67554-.515574-.9934625-.160259-.2497582-.317754-.5014606-.484536-.746945-.158065-.2380927-.346121-.4528301-.535133-.6662838-.162691-.191499-.338642-.3707934-.504162-.5597474-.17087-.1897028-.338417-.3818993-.516713-.5647583-.142236-.1441396-.282372-.2914125-.4427784-.415959-.0383847-.0298035-.0785411-.0572522-.1178118-.0858783-.2867343-.1927835-.6073693-.3269217-.9239565-.4619777-.2258719-.0937333-.4551863-.1796149-.6868015-.2581149-.1838433-.0672339-.3585183-.0834625-.552619-.0837163-.4704186.0280783-.8366368.2286136-1.223183.4777235-.1740985.1246997-.0921155.0619394-.2467642.1872108-.546989.4492256.0883118 1.2227848.6353008.7735591.091835-.07727.040349-.036382.1559245-.1207918.2123398-.1386752.4328306-.2835818.6897854-.3167628.077211-.00338.1483635.00194.2213454.031179.2073577.069668.4122018.1473126.6144654.2305324.2498109.1064135.503868.2098875.7340301.3552383.1591093.1097058.2929202.2485147.4267663.3869854.1659525.1697773.3208851.3491699.4801025.5251757.16673.1902714.343453.3712263.507671.5637316.160967.1817587.322895.3631229.457219.5661745.158692.2322398.306602.4717412.459272.7079392.153791.2497426.30594.5028422.415354.7758345.0954.287877.142738.5886268.198055.886124.06507.3722301.106265.7479541.140984 1.1241365.0053.063234.01602.1781556.01783.2464147.0041.1547669-.003.3098329.000156.4646266.00019.280661.000503.561322.000424.841983-.000318.3017441-.000397.6035471-.0092.9051921-.0096.239354-.02765.478288-.06083.71565-.02936.200508-.07318.398559-.123332.594855-.0073.02665-.01558.05306-.02194.07996-.0063.02666.01004.0021-.007.03545-.03481.06814-.07931.131757-.121271.195429-.125034.184644-.257995.36392-.394458.540249-.06791.08922-.135126.156199-.229484.220263-.162228.119079-.329874.235397-.465598.385234-.05367.06223-.101292.127531-.158007.187217-.05478.05799-.111005.115515-.163569.175193-.0075.0058-.01576.01062-.02243.01729-.000953.000952.005.000608.0039.0013-.06945.04048-.144517.07023-.217343.103763-.142721.06538-.284453.112171-.4383279.147014-.1965806.05221-.3943929.102314-.5865286.169289-.1489189.04537-.3000568.08342-.4485883.130199-.1888228.04936-.3811135.09177-.5774068.08971-.2004021.0067-.4007176.01843-.6012606.01726-.2039647.000476-.4079304.0013-.6118955.00082-.1950903-.0013-.3905795-.0032-.5846601-.02543-.3041635-.040034-.6031463-.11083-.9035029-.172022-.3539842-.07723-.7085941-.157729-1.050245-.279995-.0663162-.032234-.1348518-.06031-.1987611-.097085-.1105347-.063605-.2032907-.154175-.3006045-.235173-.1463127-.129456-.2813256-.270367-.4103775-.41699-.1019262-.130029-.1932993-.267283-.2754468-.410731-.1550964-.259445-.315249-.516348-.446074-.789365-.0955188-.197991-.1890549-.397529-.2340598-.614288-.024512-.09855-.021423-.165922-.02159-.268594-.0002089-.128447-.0004948-.256893-.0008308-.385339-.0006826-.283841-.00212-.567714.00289-.8515255.00918-.3489579.027081-.6982706.083126-1.0433507.023855-.1404681.041311-.255914.072957-.3943099.0484069-.2116688.1231686-.4155466.2197936-.6099474.1470112-.2954417.3090744-.5827905.487108-.8607626.2107086-.3330392.4384569-.6546294.6678599-.9749795.221374-.2982127.4613788-.5815507.6832536-.8793792.1529782-.1964584.3017198-.3963125.4637128-.5856089.1184796-.1421723.234135-.2865474.3587152-.4235476.1352849-.1507758.2735259-.2985717.4144809-.4441309.1690356-.1754053.3442133-.3447484.5257792-.507197.2325965-.2058361.4705836-.4058394.7173592-.5945181.1955604-.1481294.3983342-.2858994.5986666-.4273872.5724345-.4163161-.0163248-1.22586092-.5887598-.8095448z"/><path d="m4.9847367 5.6625119c-.203381.2045599-.3923932.4226261-.5925185.6302946-.2595356.2777802-.495608.5762342-.7270895.8774322-.203.2594202-.3817615.4816419-.2391458.846945.037268.095461.1219512.1647258.1829268.247089.062756.041171.1216092.089018.1882688.1235123.2205982.1141534.5330179.1502061.7791127.1750814.2020628.022614.405007.035038.6081284.042574.1851657.00917.3766516-.021201.5258059-.1426205.1403027-.1142144.1512316-.1691406.2227212-.3142571.0716918-.2024391.1031677-.4154284.1424599-.6256679.0311587-.1946804.0607475-.389124.1092597-.5804077.0457959-.1902944.1230982-.3703193.1792158-.5573985.0469476-.1595485.0457681-.3257542.0452765-.49032.001958-.1739236.0271833-.3461562.0492281-.5183177.0012436-.0108691.036879-.2998454.0355783-.300555-.272778-.1488482-.5754039-.234872-.863106-.3523078-.1296432.1500243-.2475336.310207-.3655645.4695312-.1381736.1844045-.2708066.3728524-.4081655.5578559-.137659.1881399-.2597243.3870341-.3834559.5844458-.1069798.174883-.2215473.3449288-.3369535.514318-.09027.1350174-.1825313.2690648-.2640811.409653-.017161.029585-.04429.055974-.049748.089738-.022394.1385543-.021741.2798617-.03261.4197926.079338.1065996.1400947.2299664.2380141.3197985.060686.055674.1456804.07883.2240592.1041119.1837888.059283.3863951.037552.5693833-.00972.045563-.011771.08965-.028654.1344756-.042981.1684471-.0689031.3264115-.1651958.4630825-.2858365.0818981-.0722924.1125374-.109261.1832655-.1863532.0911083-.1113623.0481391-.0550122.1292363-.1687991.4038153-.5813208-.4182965-1.1524017-.8221117-.5710809-.026637.041659-.010909.018904-.048521.067324-.024654.02773-.047394.057325-.074231.082947-.045787.043712-.099669.077947-.1516224.1136285-.013409.00538-.026702.011065-.040228.016148-.01179.00443-.025127.00554-.035698.012388-.00831.00538.00845.018688.016129.024937.020286.016513.047123.026857.061545.048678.048537.073435.083027.1552432.1245412.2328648-.020471.1013918-.048483.201549-.061409.3041756-.00265.020905.019606-.037314.030099-.055586.0716111-.1247022.1542907-.2426807.2337774-.3623602.1225047-.1799389.2441014-.3605884.357824-.546254.1098267-.1752996.2178035-.3521545.3392766-.5197213.1373211-.1853676.2701618-.3739708.4086378-.558493.0653833-.0883772.1325258-.1749571.1993212-.2622317.012668-.016552.024532-.033711.036978-.050433.010022-.013467.024487-.024426.030426-.040128.0035-.00926-.015036.01288-.022556.019323-.2736448-.1305611-.5591228-.2387696-.8209349-.391681-.023691-.013838.014602-.054491.010552-.081625-.00328-.021952-.00928.043427-.012988.065311-.013078.077124-.00945.066215-.017015.1343313-.00251.022603-.0054.045163-.0081.067745-.027564.2153838-.056858.4311038-.057325.6487297.0002511.068419.00472.1386811-.00514.2063718-.055273.2013181-.148481.391627-.1899997.5973755-.051306.2105176-.089687.4231269-.1216202.6373696-.026519.1421934-.05062.2852983-.08315.4260273.037159-.050341.048421-.070806.1153231-.1134811.030236-.019285.064837-.031315.099124-.041828.034829-.010681.1286661-.000979-.00148-.0048-.1826001-.00665-.365029-.01787-.5466525-.038415-.097596-.00931-.1946542-.019389-.2909821-.038265-.026622-.00522-.052617-.013544-.079398-.017865-.0073-.00119-.021826-.0059-.022135.00148-.0005291.012369.013856.020521.020783.03078.069382.1437801.098362.1530551.060755.3366315-.00876.042768-.043908.075627-.06208.1153215-.00768.016764.019817-.031109.030429-.046185.039723-.056438.08523-.1141756.126928-.1684607.2088836-.2718907.4213488-.5417438.6546864-.7933003.1861344-.1937237.3645283-.3945718.5501436-.5887876.5201042-.4800963-.1588542-1.2156345-.6789584-.7355385z"/><path d="m6.3510011 5.5914038c.0834379-.0931527.1612725-.1909149.2407079-.2874378.4495519-.5467204-.3236278-1.1824832-.7731797-.6357625-.07989.09723-.1584918.1953411-.2422594.2893293-.4482145.5478176.3265167 1.1816887.7747312.633871z"/><path d="m8.5621547 3.7254714c-.00323-.0007938-.011991-.00474-.00968-.00235.02036.02105.045427.037158.065939.058061.029836.030405.052635.066235.078026.1003491.077665.1154903.1369568.241459.2015641.3643444.071789.1496854.1401468.3008384.2120598.450532.07031.1737669.1753582.3319042.2461416.5050261-.018227-.080624.042495.1290063.030715.097151-.040264-.1088816-.00845-.2281819.060661-.3215478.037878-.05117.09695-.08254.1454256-.1238107.022008-.00893.044954-.01583.066024-.026795.0028-.00146-.00589-.0027-.00905-.00285-.019293-.000926-.038631-.000146-.057946-.0003439-.1037725-.00108-.2075296-.00318-.3112876-.00515-.054934-.00101-.097516.0019-.1491093-.00791-.0059-.00111-.02282-.00729-.016912-.0062.1167381.021405.1619874.064801.2380618.1489689-.0307301-.1687753-.0563182-.3385325-.0757678-.5089803-.0173355-.1624306-.0170735-.3260188-.0182932-.4891643-.0007144-.16002-.000344-.3200424-.000018-.4800629.0014552-.7078123-.9995382-.7098768-1.0009979-.0020637-.0003439.1632407-.0007144.3264834.0000445.4897236.00153.1990164.00259.3984874.024887.5965185.030606.2620941.063218.5267764.1458608.7783372.040952.073939.06901.1566653.1228558.2218161.1794497.2171247.4473271.261422.7103623.2598322.1114502.00212.2229753.00518.3344506.00532.06195.0000807.1711097.0000273.230075-.010856.058154-.010734.114458-.029799.1716868-.044698.0752064-.053093.1644684-.0904656.2256194-.1592816.149971-.1687711.165911-.3791392.125562-.5868006-.01219-.062737-.052997-.1623767-.07529-.2211099-.081671-.1822172-.180227-.3560212-.261496-.5385528-.0772078-.1606915-.1499319-.3232756-.2285275-.4832625-.0894233-.1696892-.1731346-.3431278-.2865794-.498748-.1257565-.1668085-.2598854-.3127209-.4384323-.4245536-.6145546-.351174-1.1111897.5179375-.4966351.8691115z"/><path d="m10.949381 8.4803831c.0143.2194319.01535.4394827.01786.6592874.0011.2477889.0081.4955836-.0041.7431582-.0094.1240283-.02847.2468363-.05742.3677263-.02259.08522-.04715.170144-.07588.25353-.0022.0063-.01299.02293-.0081.01835.101323-.09524.199045-.194243.298567-.291364.16117.03657.322341.07314.483512.109704.02218.02724.03644.06363.06655.08173.01518.0091-.01049-.03385-.01527-.05091-.02842-.101466-.05257-.203713-.07521-.306595-.0444-.2280232-.05182-.4613024-.05839-.6929165-.0042-.1783072-.0036-.3566753-.0031-.5350166.000265-.091177.000529-.182354.000715-.273531.000032-.014568.0022-.029282.000097-.0437-.0086-.05988-.02137-.1190882-.03205-.1786324-.271224-.070568-.533671-.1997723-.813671-.2117047-.072-.00307-.09004.1126402-.131727.1714164-.01559.021974-.02637.046988-.03977.070359-.04694.081874-.09441.1634638-.141535.2452375-.133796.2147914-.260741.433536-.3865485.6530303-.0985978.1581973-.2008137.3139893-.3040602.4691679-.0883828.1357837-.170315.2751841-.2438374.4195351-.0785791.1529-.2014392.260555-.1051179.490515.1536335.366791.2981092.362638.5607047.416809.1949183.02338.3916403.03522.5878643.02761.09089-.0092.181903-.01603.273128-.02078.706834-.03725.654156-1.036862-.05268-.999613-.09108.0048-.182198.01013-.272822.02077-.123894.01379-.251241-.01197-.374975-.01602-.1225233.09835.125918-.1055154.253719.344328.03221.113374-.05033.230488-.06723.347131-.002.014.01493-.02405.02218-.0362.01399-.02345.02824-.04675.04153-.0706.0096-.0172.01807-.03499.0271-.05248.05455-.109425.118011-.213523.18382-.316507.115552-.173677.230055-.348024.339126-.525882.125425-.2188305.25232-.4366831.385335-.6510176.04855-.084257.09742-.1683459.145795-.2527025.01176-.020508.05574-.072847.03486-.061759-.03552.018868-.04351.094068-.08318.087422-.270292-.045283-.525563-.155621-.788344-.2334312-.0062-.046073-.0096-.092617-.01867-.1382171-.0028-.014301-.000065.029159-.000097.043739-.000201.091072-.00045.1821434-.000715.2732151-.000476.1888181-.0011.3776644.0035.5664436.0087.2948524.0214.59138.08177.8809937.03041.135951.06094.272271.102517.405383.01316.04214.02384.08554.04327.12518.03505.0715.05039.167284.119491.20685.163707.09373.359747.113695.539621.170542.115863-.102017.239329-.196001.347591-.306053.01904-.01935.01962-.05064.02853-.07628.03743-.107724.06782-.217977.09651-.328279.04178-.18027.07112-.363129.08274-.5480064.01279-.2675906.0073-.5353312.0052-.8031419-.003-.2573795-.0032-.5153599-.02553-.7719663-.08779-.7023481-1.081064-.5781892-.993271.1241586z"/><path d="m7.8917381 7.4578558c-.031753.1927982-.086217.3810024-.146639.5665441-.041194.1116621-.085457.2220386-.129473.3326035-.011229.028203-.024715.055652-.03322.084792-.01543.052876-.02562.1071423-.03843.1607135.029872.1300657.028549.2715368.089615.3901974.045436.088289.1337683.1496894.2164898.2046116.160589.1066218.4082215.118082.5960572.1160844.1894424-.0027279.3576844-.0841325.5269447-.1581658.188415-.0519481.2934811-.1805453.3967493-.3627202.0551987-.0973759.0376079-.2464861.0331451-.3532204-.024503-.197032-.0878408-.3862683-.1666891-.5675764-.0465431-.1076926-.0977762-.2129978-.1567965-.3143608-.0327219-.0418496-.0445987-.0822965-.0650725-.1307412-.0028363-.0072866-.0056753-.0145759-.0085116-.0218625-.2611255-.6578862-1.1915166-.2885988-.9303911.3692872.00598.014938.01197.029878.017955.044817.038854.089891.075186.1815565.1326962.2617941-.00547-.019058-.00281-.00832.015915.028916.019405.03858.0368.074892.054633.1146135.00813.018105.016571.036066.024858.0541.037375.080082.064474.1644883.084406.2504101.00865-.032522.025773-.09853.035649-.1109228.06193-.077721.1384062-.14272.2104313-.2111907.00473-.0045.023971-.010028.018508-.00645-.030025.019651-.076269.00871-.100421.038788-.00791.00349-.1450491.061524-.1497314.068326-.00283.00411.011824-.0023.01488.00164.00233.00299-.00714.00251-.010705.00376-.021299.00111-.04257.00304-.063895.00335-.00935.0001347-.033753-.00806-.028056-.000635.014187.018473.041694.022463.057763.039326.1654969.1736754.1094407.1397111.1390875.4232605-.00498.00956-.018119.03899-.01493.028691.00462-.014917.063643-.1598388.06577-.165164.049851-.1248016.028949-.072108.0726-.1896991.01492-.040194.029986-.080334.044979-.1205019.0695565-.21774.1347329-.4378932.1726115-.6636645.1483077-.6921021-.8304726-.9018408-.9787803-.2097387z"/><path d="m2.8432548 11.382716c.11972.207493.2694419.395406.4066942.591217.1211572.173227.2184628.360712.3073276.552023.076962.189005.1519608.379389.2172152.57284.041079.122636.079464.246608.1062567.373237.016486.08403.0276.170046.052158.252331.0094.03148.014168.06558.031842.09328.051618.0809.1160092.152907.1740141.229361.2267707-.01382.4601488.01462.680312-.04145.069226-.01763.095403-.106949.1352328-.16625.113271-.168646.1918033-.417522.2577092-.611041.088573-.248975.1312812-.509127.1633288-.770291.024699-.220149.034661-.441504.039496-.662857.0009789-.190724.024577-.38717-.071343-.564327-.040648-.07508-.108848-.131552-.163272-.197328-.1748861-.138209-.3901934-.183933-.5994179-.242157-.1494137-.03819-.2979405-.076914-.4496724-.105085-.1309391-.016798-.2484644-.064242-.3609633-.131374-.0038-.0038-.015439-.01483-.011409-.01131.1140394.09974.2379869.188058.1876714.395288-.038235.157474-.1579941.287519-.2711874.40348-.04078.04178-.1195271.01493-.1690235.04589-.014809-.001-.029661-.0045-.044429-.003-.00254.000257.0001238.0057.00212.0073.014102.01131.030304.01976.044919.0304.055885.0407.1053097.08937.1565032.135634.051465.04915.1069723.0983.1496591.155926.015928.0215.050289.11048.059563.132158.053646.133279.083132.274877.1180918.413933.1727697.686404 1.1434924.442071.9707226-.244333-.0494956-.196432-.0939673-.39551-.1764612-.581438-.0466429-.100747-.0695868-.159344-.1293482-.252931-.0882272-.138164-.2003237-.257525-.321896-.366727-.208279-.187479-.4272151-.365228-.7099795-.420772-.1051208-.0096-.2742549-.03416-.3561241.03286-.1373468.11242-.2711294.254775-.3203896.425292-.060688.210077.096601.387784.2297343.506982.029301.02623.065109.04414.097664.0662.2109666.116871.4324911.209873.6728889.244915.1226502.02247.242168.05462.3630329.08508.065461.01821.1309343.03618.1965902.05362.014121.0038.052478.01899.043144.0077-.00959-.01155-.021574-.02087-.032361-.03131-.1130293-.175591-.064066-.06507-.1062686-.266231-.00196-.0093.0023.01893.00251.02845.00172.07517-.00228.150471-.00204.225641-.00397.187967-.012007.375939-.032334.562949-.0235.193202-.05107.386261-.1177259.570335-.036224.107461-.075721.21273-.1165013.318486-.00548.01421-.026294.03235-.015415.043.010142.0099.023863-.01537.035796-.02305.2008452.0084.4016904.01677.6025356.02516.043709.06482.088958.128639.1311278.194476.00225.0035.00316.01622.0014.01243-.029934-.0644-.020481-.154669-.044627-.220598-.0365253-.162374-.0818228-.322735-.1361168-.480173-.0779058-.227779-.1644291-.452977-.258185-.674648-.1145749-.243749-.2396558-.482741-.3950308-.703453-.1092234-.155142-.2230218-.30698-.3304146-.463402-.316544-.633088-1.2118656-.185427-.8953217.447661z"/><path d="m6.7043318 12.211421c.057495.245245.095752.494609.1292854.744108.02646.193647.035418.388929.039713.584127.0005556.136914.0005027.273459.010393.410071.039363.305845.1114928.474746.5800294.555161.2487893.0427.4263202-.264916.5293817-.43513.1322597-.233327.2314983-.482378.3385736-.727638.088134-.219362.1920594-.43135.3097784-.636169.054581-.09502.112065-.188569.1630979-.285592.01206-.02293.029063-.04424.034781-.06951.021593-.09542.031014-.193184.046521-.289776-.063974-.117693-.095172-.260431-.1919229-.353079-.201595-.193049-.5067376-.114271-.7391635-.06378-.2103046.04607-.4232159.0742-.6367367.09984-.7027603.08443-.5833581 1.078283.1194022.993853.2448816-.02943.4889635-.06304.7301648-.115582.1848937-.04029.037493-.0058.1272273-.0301.00636-.0017.024736-.000846.019251-.0045-.00932-.0062-.022987-.000344-.03325-.0048-.3348466-.146152-.2095056-.05887-.392253-.435632.017071-.07851.03578-.156677.05121-.235524.00143-.0073-.00563.01383-.00911.02042-.033846.06392-.070497.126615-.1069279.189068-.016886.02895-.033787.05788-.050681.08683-.1353913.236619-.2566432.480707-.3588179.733661-.090846.208218-.1740114.419983-.2833627.619534-.00884.016-.018113.03177-.026518.04801-.00306.0059-.014131.02061-.00785.01838.1011201-.03588.1955488-.152827.2981293-.121369.1941235.05953.329328.237771.4892829.36284.00183.0014.00363.04515-.00196.0067-.00914-.119402-.00576-.238904-.00791-.358615-.0053226-.232532-.0169061-.465048-.048469-.695657-.0387921-.286069-.0830617-.571942-.1501685-.852924-.1716699-.686681-1.1427825-.443903-.9711126.242777z"/><path d="m10.313818 13.790232c.189319-.182145.384759-.357726.569461-.544639.157746-.155569.278761-.339023.3882-.530086.07257-.132723.130453-.272223.184359-.4133.07751-.220582.204447-.47968.0382-.709311-.09005-.124385-.251722-.17595-.377583-.263925-.281186-.04489-.545418.03495-.803957.136422-.120175.05919-.258218.0825-.3739499.151416-.045712.02722-.087439.06063-.1311582.09095-.1916115.171791-.2455259.358911-.2929736.600508-.027918.122314-.038405.24806-.067815.370003-.029568.08959-.056982.179995-.088186.269034-.2302912.669303.7162457.994983.9465367.32568.04231-.124271.08422-.248926.118398-.375711.02883-.132774.04775-.267184.07414-.400432.0057-.03088.0152-.06112.01874-.09232.000263-.0023-.004.0026-.0054.0044-.0061.0078-.01082.01658-.017.0243-.02366.02955-.02556.02797-.05684.05274-.01718.0088-.03393.01858-.05154.02654-.000979.00045-.0033-.0018-.0023-.0022.09944-.04152.203679-.07147.302015-.115867.05658-.02366.113941-.04538.172669-.06321.01225-.0037.02478-.0064.03718-.0096.0084-.0021.0304.000767.02528-.0062-.0083-.01133-.02656-.0091-.03983-.01366-.08987-.07924-.209554-.134052-.269613-.237731-.04786-.08262-.02579-.189333-.03294-.284549-.000635-.0084.01167-.03128.0099-.02311-.0053.02377-.04258.119563-.04522.126791-.0079.02171-.01543.04358-.02314.06536-.03413.09219-.07169.182314-.116714.269789-.06655.116397-.134594.230992-.232547.324833-.169967.173253-.3520481.33387-.5259598.503056-.5261142.473503.1435195 1.21754.6696338.744038z"/><circle cx="7.741438" cy="9.125856" r=".000942" stroke="#000"/><path d="m7.3355532 8.7661257c-.098618.083196-.1872673.1765249-.2738519.2718464-.00177.00114-.00678.00489-.00531.00339.3387206-.3464844.616811.1405572.8065032.4305546.030148.046089-.099969.2457317-.04677.1628597-.041232.055926.071785-.063099.072493-.063794.045477-.055133.099814-.098082.1512033-.147021.095696-.078209.023053-.020891-.00893-.00279.094522-.024723.1824929-.066695.26793-.1132239.029979-.021016.061056-.040546.089938-.063045.022405-.017455.042212-.038014.063673-.056617.0527338-.0457136.1093795-.0879379.1642974-.1310065.0703358-.0491591.1290365-.1124016.1950215-.1666229.0171556-.014097.0362032-.0257466.053726-.0393851.0711155-.0655254.1472486-.1249775.2187213-.1899769-.1759138.1861182-.5348735.1284673-.6842575-.0628108-.0993693-.1272365-.0803894-.3150947-.0873263-.4763873-.0021695-.0501838.1019077-.1584307.0483524-.1014357-.0571924.0697243-.1188191.1356093-.1834888.1984536-.0803196.0689909-.1656821.1334548-.248806.199743-.1069028.0829979-.2127205.1675511-.3159715.2550789-.052817.039681-.1021932.084471-.1463791.1336273-.041131.045757-.056433.069318-.041072.046076-.012208.014393-.024244.028937-.036628.04318-.0047.00541.00851-.011618.013586-.016679.014571-.014528.060648-.055635.045251-.041985-.026231.023257-.052782.046211-.077761.070806-.030943.030468-.048046.060722-.035119.038375-.025993.028824-.082176.085146-.099687.1118118-.1396309.2126312-.1807281.3730224.0105762.6718714.0737682.1152379.2439471.1239996.3659206.1859994.3104332.0044926.5810882-.0970177.8539784-.2335035.1471001-.0711393.2681938-.1815124.4021772-.2725505.0706266-.051876.1401514-.1052409.2125369-.1546653.1156248-.0720871.2020189-.1500804.2902699-.253514.1290796-.307803.1971498-.318081-.058425-.7037803-.0883793-.1333772-.3624226-.1628052-.51415-.1759257-.1829948-.0167825-.366123.0279882-.5264904.1164127-.0336722.0185659-.065595.0401421-.0983925.0602131-.1261628.0835229-.2321602.1921142-.3377662.2993581-.4963645.5046016.2172501 1.2065669.7136145.7019652.055035-.05602.1086496-.1147411.1708859-.1628233-.00478-.010512.0003705.00349.017277-.013848.000979-.00101-.063782-.00458-.058179-.00548.012414-.00201.025117.00127.037675.00188.012007.0008466.024016.00167.036019.00257.00848.000635.018105.00637.025437.00206.00499-.00294-.010649-.0047-.01546-.00793-.0508266-.0340363-.1230509-.0495502-.1513495-.1037831-.1995304-.3823944-.161041-.3489481-.0302839-.6261648.00819-.00821.01605-.016769.024582-.02463.00188-.00172.00841-.00575.00652-.00403-.00808.00737-.018373.012483-.025175.02105-.00338.00426.018928-.010671.014465-.00756-.017537.012232-.035847.023318-.05377.034976-.011734.00822-.023469.016433-.035203.024651-.072827.050437-.1444948.102522-.2148965.1562959-.094996.066497-.1835171.1418035-.2829147.2015874-.084625.043299-.167314.085859-.2599841.1092523-.02277.00575-.061258-.00736-.06887.014859-.00659.019235.039991.00738.059987.011065.092041.057953.2270765.076778.2761223.1738579.073704.1458897.058513.3234944.05772.4869432-.0001831.037771-.038935.064804-.060546.095782-.00509.0073-.025318.025043-.019217.018558.057524-.061148.027405-.024905.049178-.051467.015439-.016346.031057-.032522.046313-.049038.00138-.00148-.0031.00262-.00465.00394-.015552.012843-.031102.025686-.046653.03853.098627-.087098.052844-.037078.1214089-.1137039.00262-.00294-.00556.0056-.00833.0084.011882-.013137.024114-.025969.035648-.039412.00292-.0034-.012819.012533-.00977.00925.00829-.00893.018119-.016502.025503-.026194.00339-.00445-.015571.015322-.013319.010202.011406-.025937.074514-.014547.065805-.053812.0953254-.0811786.1936398-.1588801.292462-.2357186.1114245-.0890304.2265889-.1743374.3302452-.2723663.0765551-.0769427.1532152-.154201.2216602-.2385861.1778284-.2004341.2773844-.4355907.0698664-.7252431-.2021816-.282204-.5587801-.217706-.7686854-.0401505-.0500044.0478362-.1083728.086478-.1560658.1368822-.0865294.0675214-.1677744.1401882-.2529084.2092682-.0761238.0601581-.1540007.1193874-.2263118.1840947-.0005821.0005292.00151.0002911.00228.0004498.011499-.00661.022998-.013211.034494-.019817-.00628.00619-.017547.0059-.023233.012637-.00348.00413.020365-.00682.015669-.00415-.041808.02376-.096437.022013-.1383112.046506-.032107.01456-.065056.027392-.096322.043679-.0822366.0428354-.1501178.1055405-.2183369.1668961-.0532662.0517115-.1131062.0973452-.1597843.1553435-.0772626.0758452-.1562264.151117-.2164948.2418286-.0430453.0682128-.1299493.2008865-.101506.2508015.1287515.2259435.306833.4394739.530648.5718913.1145831.0677918.3214153-.130796.403425-.2110404.0581671-.0643223.1165421-.1283298.1834809-.1839275.5374124-.460639-.1140296-1.2206549-.651442-.7600159z"/></g><g fill="#0ff" stroke-width=".106785" transform="scale(.26458333)"><path d="m24.40028 58.360699c-.996591-.106549-1.90969-.274515-4.377815-.805308-3.12719-.67253-4.908511-1.306422-6.241134-2.22094-.713367-.489551-2.822425-2.573135-3.414487-3.373246-1.0227219-1.382104-2.7944982-4.547875-3.476355-6.211476-.6337199-1.546155-.6955012-2.072082-.6953209-5.919074.0003018-6.438371.4322276-8.977151 2.0779063-12.213544 1.3430603-2.641265 3.1885386-5.38876 6.3925996-9.517122 2.847861-3.669405 3.998569-5.007092 6.189394-7.195103 1.798142-1.7958329 1.904733-1.9246036 1.794101-2.167413-.170933-.3751596-.144104-1.0676775.05785-1.4932712.426854-.8995294 3.146488-2.5680328 4.950188-3.0369556.264292-.06871.892488-.1243127 1.395994-.1235611.792523.00118 1.092061.061466 2.230494.4488977 1.616555.5501465 3.885586 1.5299534 4.98963 2.1546091 1.041905.5894982 2.497605 1.9769385 5.139959 4.8989371 2.503875 2.768865 3.08004 3.496086 4.451368 5.618403 1.383417 2.141026 2.310352 3.798115 2.725006 4.87151.364017.942312.948236 3.736108 1.289911 6.168484.205545 1.463271.238145 2.261781.281192 6.887607.05311 5.706949-.02612 7.366894-.453597 9.503829-.484055 2.419742-.703703 2.910098-2.265656 5.057995-1.081681 1.487458-1.504968 1.939663-2.566798 2.742151-.485367.36682-1.236661 1.072058-1.66954 1.567197-.43288.495139-1.053725 1.077257-1.379655 1.293597-.813172.539754-2.142955 1.092585-3.543241 1.473035-.646047.175527-1.823347.513247-2.616222.75049-2.575098.770513-3.055882.83178-6.940999.884506-1.908775.0259-3.854924.006-4.324777-.04423zm2.994712-3.803305c-.232319-.08506-.537216-.261878-.677551-.392918-.510298-.476501-.581554-.771304-.676607-2.799267-.09661-2.061158-.190249-2.872712-.538338-4.665654-.258136-1.329616-.212836-1.753532.242835-2.272514.641664-.730815 1.636353-.872357 2.434075-.346363l.385474.254169 1.334807-.247372c1.558106-.288755 1.91331-.304576 2.379387-.105983.448214.190981.762575.541511 1.032127 1.150877.303903.687021.205084 1.26986-.391392 2.308478-.680276 1.184535-1.042086 1.912892-1.593675 3.208214-.774605 1.819043-1.436162 3.020987-1.964423 3.569049l-.490607.508996h1.200665c1.609522 0 2.551447-.144372 4.2925-.657925.80408-.237178 2.051156-.59439 2.77128-.793806 2.083242-.576888 2.494075-.804208 3.572309-1.976607.510118-.554665 1.333453-1.313003 1.829634-1.685193.641101-.480897 1.10195-.943624 1.592644-1.599139 1.37081-1.831254 1.521891-2.111703 1.820014-3.378474.494646-2.101822.553716-3.023837.554144-8.649553.00032-4.849565-.01731-5.361375-.241652-6.994391-.654279-4.762687-.979242-5.804739-2.656289-8.517886-1.826645-2.955171-2.222189-3.467029-5.385757-6.969482-2.455658-2.718714-3.074813-3.277729-4.353733-3.9308355-1.084448-.5537959-3.401955-1.5115774-3.657506-1.5115774-.220312 0-2.509988 1.6580211-4.048779 2.9318399-1.628656 1.348209-3.919138 3.620334-5.387142 5.343966-1.456492 1.710115-4.679477 5.848349-5.947448 7.636378-1.982427 2.795519-3.618958 5.653964-4.143633 7.237472-.570583 1.72206-.853886 4.680177-.85652 8.943376-.00127 2.062247.035797 2.817652.162064 3.302425.488972 1.877291 2.703686 5.767503 4.144795 7.280459l.697261.732023-.165943-.747492c-.445639-2.007374-1.571249-4.438546-2.96642-6.407076-.958349-1.352192-1.125917-1.694416-1.125917-2.299459 0-.554839.101896-.739759.897993-1.629664.872511-.975324 1.046132-1.076927 1.804547-1.056025.700366.0193 1.346905.267322 2.091687.802394.362225.260232.812849.433901 1.691405.651859 1.980404.491312 2.790508.991931 3.208128 1.982518.12752.302476.146176.740279.09783 2.295869-.0876 2.818733-.437716 4.542478-1.307052 6.435064-.532326 1.158901-.714183 1.372338-1.247121 1.463695l-.456596.07827.563431.197235c.699087.244721 3.355271.862887 5.202937 1.210863 1.093019.205851 1.740146.261697 3.043361.262638 1.567556.0011 1.632804-.007 1.232766-.15347z"/><path d="m18.260166 32.393774c-2.739499-.205322-4.135489-.633919-4.800799-1.473943-.692784-.87471-.810002-1.625332-.392766-2.515128.29274-.624297 2.385448-3.272209 3.797749-4.805307.541039-.587315 1.604431-1.915541 2.363093-2.951614 1.76939-2.416381 2.028769-2.722279 2.268135-2.67492.113304.02242.387299-.141976.668223-.400923.261895-.241406.599065-.485644.749266-.54275.96831-.368151 2.117381.253807 2.398636 1.29831.154403.573409-.01537 1.127901-.553962 1.80927-.382755.48422-.450024.652072-.526907 1.314757-.04847.417819-.09025 1.081703-.09283 1.475298-.0035.528194-.114953 1.062871-.42568 2.041412-.231545.729181-.570184 2.137059-.752531 3.128618-.519841 2.826765-.701856 3.297515-1.497967 3.874214-.422497.306056-1.257786.560584-1.738632.529794-.129255-.0083-.787619-.05647-1.463032-.107088z"/><path d="m33.820551 21.832215c-.62072-.153145-.981208-.375372-1.397117-.861267-.428503-.50061-.613771-.998106-.890197-2.390428-.154122-.776293-.190916-1.505101-.191381-3.790853-.00063-3.092937.0082-3.143186.657294-3.757364.84016-.794917 1.808906-.644282 2.98011.463394.86923.822081 1.402991 1.699107 2.794739 4.592046 1.183404 2.459868 1.252798 2.640949 1.291355 3.369736.05379 1.016657-.188446 1.538876-.95536 2.059617l-.55043.373746-1.66755.02051c-.917153.01128-1.849311-.02433-2.071463-.07914z"/><path d="m27.699001 37.232429c-.465805-.337427-1.273514-1.219255-1.558195-1.701181-.171325-.290031-.168855-.325027.05391-.76367.128405-.252841.726118-.934222 1.328251-1.51418 1.09307-1.052815 1.095469-1.05626 1.528681-2.195483.238641-.627557.544754-1.610107.680251-2.183445.295675-1.251115.523069-1.671013 1.081408-1.996896.365904-.213565.516876-.237903 1.150206-.185423 1.191839.09876 1.571198.404648 2.299616 1.854243.610647 1.215222.935549 2.038347 1.09227 2.767218.07273.33824.196405.744742.274837.903337.206812.418188.174685.812893-.117192 1.439781-.224799.48282-.432629.68408-1.627422 1.575976-2.007711 1.498728-3.704036 2.241931-4.980197 2.181953-.246031-.01156-.52207.01229-.613419.053-.103418.04609-.32718-.04267-.593005-.23523z"/><path d="m42.126524 41.967614c-.800601-.238275-.925978-.247315-1.995439-.143878-1.45411.140641-3.123991-.01946-3.824322-.366654-.511633-.253647-.995255-.959364-1.129845-1.648706-.07843-.401698.422608-1.390351 1.77457-3.501613.974843-1.52234 3.199521-5.284567 3.199521-5.410815 0-.105192.688758-.09937 1.067846.009.225133.06438.330823.0045.674549-.382199.695521-.782458 1.749596-.872461 2.500139-.213476.684637.601119.708652.73583.755089 4.235608.04455 3.357525-.03358 4.243396-.510367 5.787067-.191993.621599-.303977.788507-.876892 1.306964-.361235.3269-.684642.591788-.718682.588641-.03404-.0031-.446315-.120135-.916167-.259973z"/><path d="m36.782743 52.392483c-.378211-.230641-.903118-.824284-.903118-1.02138 0-.07484-.125455-.371489-.278788-.659211-.326782-.613191-.358392-1.248316-.09778-1.964723.09614-.264292.294653-1.081194.441135-1.815338.456181-2.286309.899564-2.780642 3.213789-3.583096 1.834543-.636124 2.538996-.653818 3.471749-.0872.750642.455991 1.044221.879591 1.044774 1.507482.000748.85141-.911169 3.05899-1.748127 4.231882-.504568.707089-2.877436 3.05709-3.422375 3.389394-.434531.264977-1.288548.266064-1.721256.0022z"/></g></svg>