<svg height="16mm" viewBox="0 0 16 16" width="16mm" xmlns="http://www.w3.org/2000/svg"><g fill="#ff2a2a" stroke="#ff2a2a"><g stroke-width=".264583" transform="matrix(1.0335066 -.92914048 .95155977 1.0091566 -7.371469 6.762216)"><ellipse cx="7.275257" cy="1.850599" rx="1.200771" ry="1.257277"/><ellipse cx="7.571918" cy="14.338614" rx="1.243151" ry="1.172517"/><circle cx="7.515411" cy="12.855308" r=".001884"/><circle cx="7.204623" cy="3.588185" r=".001884"/><circle cx="7.600172" cy="12.657535" r=".000942"/><circle cx="7.289383" cy="3.616438" r=".001884"/><path d="m7.317637 3.13613c.1695204 9.973459.1695204 9.973459.1695204 9.973459"/><path d="m6.724315 2.627569h1.186644v1.214897h-1.186644z"/><path d="m6.978596 12.148973h1.130137v1.525685h-1.130137z"/></g><g stroke-linecap="round" stroke-linejoin="round"><path d="m3.7884563 3.7195754 8.1279607 8.6790086" stroke-width=".264999"/><g stroke-width=".765"><path d="m3.7884563 3.8573373.2755241 2.5485979"/><path d="m3.9950995 3.7884563 2.6863598.5510482"/><path d="m12.12306 12.191941-3.2374077-.482167"/><path d="m11.778655 9.4367005.137762 2.6174785"/><path d="m3.8573373 3.5129324 8.9545337 9.5055816"/></g></g></g></svg>