<svg height="16mm" viewBox="0 0 16 16" width="16mm" xmlns="http://www.w3.org/2000/svg"><g fill="#0ff"><g stroke-width=".264583"><path d="m2.1856865 2.8398753c-.1917461.1020532-.3396161.2524426-.4706735.4224824-.1444743.2166424-.19843.4714441-.2350774.7249716-.0222216.2004009-.0340631.4024296-.0278825.6040254.00778.046501.010514.094135.023346.1395019.054771.1936408.1804762.3493426.3526431.4514852.033754.020026.069986.035547.1049792.05332.177376.076497.3706004.088805.5610003.095716.191699.010512.3829149-.031335.5482504-.1313595.045429-.027484.087079-.060778.1306184-.091167.1781591-.1367707.3271282-.3043739.455027-.487914.1382739-.2415556.1882008-.5167974.2128263-.7905893.020537-.2488949-.0369297-.4912945-.1830003-.6956991-.0279721-.0391427-.0630516-.0726834-.0945775-.109025-.0472881-.0370869-.0917413-.0781053-.1418645-.1112605-.1707557-.1129506-.3789654-.1683697-.5763631-.2115373-.2199364-.0346178-.4430211.0017463-.6350389.1174703-.1255349.0756629-.1430225.1060667-.2438822.2085395-.1807901.2371066-.2749082.5194388-.3360007.8076391-.044156.2500547-.054936.5067768.082636.7332429.033064.054429.079994.099116.1199906.1486747.1390925.1270069.2966981.2000483.482454.2293228.04988.00786.1011505.015219.1512327.00877.2446077-.031492.2401145-.04907.4269141-.1547541.2168059-.1627074.3623238-.3868661.4424783-.6440395.012332-.03957.020923-.08021.031386-.120315.015684-.097819.041056-.1978239.040128-.2977433-.0005027-.052947.012626-.1104646-.00951-.158564-.0608671-.1322403-.1306216-.2660211-.2333744-.3691424-.0611246-.0613439-.1587156-.0693296-.2380731-.1039943-.112753.0069903-.2279285-.0033046-.3382588.0209709-.078343.0172376-.1493903.0602594-.2182134.1014677-.1711947.1025044-.3208747.2638552-.4356816.4254035-.0383856.0540133-.0707796.1120441-.1061694.1680662-.1317465.256481-.2206582.5435224-.2171636.8347294.0006297.052515.00779.1047481.01169.1571218.076417.219782.059297.2562378.2352302.4200742.1459602.1359241.3425829.1804675.5324126.2055151.1454374.012695.2915709.00836.4373386.00636.1161333-.0004498.2331993-.000291.3472003-.026098.03674-.00832.072878-.019103.1093166-.028656.2318603-.074451.4053415-.2402347.566395-.4149033.1282379-.1212379.2319247-.2634975.3299864-.4093335.1655252-.2531633.2755096-.5388078.3657227-.8262217.0664329-.2698001.0595704-.5612278-.1336799-.7822346-.0431916-.0493953-.0992889-.0858104-.1489332-.1287158-.1812898-.1169802-.3936193-.1601158-.5987309-.2160278-.2039407-.0619043-.4161241-.0779917-.6277458-.0881164-.1691889-.00543-.346371-.00603-.5073282.055196-.0575.021871-.1119094.051134-.167864.0767-.2051041.1225664-.4115295.2498249-.5942393.4050289-.036368.030892-.070603.06421-.1059049.096315-.5184554.4818758.1630202 1.2150825.6814756.7332065.1403046-.1368466.3107076-.2390691.4752425-.3437404-.00602-.038409.1549641-.02127.1719313-.022797.1385559.00627.2778932.011673.41125.05399.081775.022278.1631977.046194.245372.066968.011361.00287.038351.00879.039635.00701.00235-.00328-.0043-.00685-.00645-.010277-.015118-.018145-.032798-.034436-.045358-.054439-.014518-.023122-.077793-.1445244-.048691-.1768176.00734-.00814.019447.081938.00381.032657-.042276.139424-.095238.2729724-.1544481.4060671-.011583.026038-.021479.05293-.035131.077946-.015589.028561-.034914.054918-.052371.082377-.013258.020058-.026514.040115-.039771.060172-.013097.018137-.026784.035863-.039289.054414-.00375.00556-.00511.012637-.0094.017804-.046073.055622-.100008.1054989-.1488305.1584852-.033153.037137-.066529.075203-.1031629.1090067-.00796.00734-.023897.00986-.025109.020616-.0008995.00802.015642-.004.023461-.00599-.0002045.00143-.0003968.00284-.0006085.00426-.024207.02545-.1240404.00979-.191476.015251-.1032756.0014-.2066503.00416-.3098937.0000294-.00721-.0001964-.014588-.00212-.021641-.0005821-.00741.00161.0099.011523.01545.016677.015422.014314.033258.026588.04567.04358.069163.094681.055698.090196.074243.2006595-.016255-.024461-.00982-.01084-.00655-.066265.00605-.10261.031092-.2041533.072848-.2979405.045477-.083489.030953-.06481.095615-.1460341.016386-.020582.034672-.039595.051166-.06009.0073-.00907.018976-.016944.020148-.028526.000635-.00621-.01089-.0061-.016335-.00914-.054599-.00778-.1091975-.015563-.1637964-.023344-.039875-.024236-.092575-.034687-.1196241-.07271-.06496-.091318-.1038367-.1989277-.1471389-.3022896-.00476-.011353.00252-.048587.00518-.036566.00828.037522-.013945.095429-.013964.1339477-.00443.02186-.010117.053249-.016916.07506-.00484.015539-.030287.063364-.030991.079299-.0001329.00301.0046.00389.00689.00584.0635.00694-.058561-.0056.1293015-.00269.00278.0000428.00324.00463.00548.00628.027366.020201.050771.036459.069419.066972.024829.046349.060132.1058013.042711.1613697-.00222.00707-.00388-.014523-.00367-.021931.0007726-.028281.010008-.1021729.01347-.1317583.018137-.09633.045011-.1862484.081771-.2771889.022913-.056682.037766-.041733.015616-.058854-.011568-.00193-.081742-.00222-.070108-.018304.053748.01052.1060552.022622.1579617.04044.016621.00571.032563.013362.049363.018521.00389.00119.01375.00415.012205.0003969-.0051-.012443-.016685-.021098-.02503-.031645.00484-.022603-.00412.023852-.00554-.035405-.0000548-.00228.00423.00358.00632.00266.00301-.00132.0037-.010544.0058-.008.017177.020796-.014449.067741.00381.080831-.00421.070354-.013959.1383647-.028661.207381-.00701.032934-.021153.065063-.021357.098735-.0000146.00241.0034.00337.0051.00506-.058019.097151-.1436931.1761659-.2288058.249161.0001286.00243.00168.00523.0003863.00728-.00266.00423-.014531.0062-.011223.00995.00855.00969.042723-.010422.038719.00185-.00209.0064-.013333.0022-.020065.00235-.016177.0003704-.032357-.0005557-.048535-.0008202-.056809-.0018-.1149962-.010687-.1716548-.00987-.00577.0000828-.00299.00456-.00231.00665.059446.060671.101501.1344023.097623.2219741-.010845-.1418328.010688-.2857595.019561-.4270838.00893-.073971.00622-.066016.021853-.1382776.0045-.020799.00985-.041403.014782-.062105.00501-.017095.011097-.033913.015032-.051289.0004445-.00196-.00282-.011094-.00359-.013406.0280933-.0482679.0752962-.0880419.1135206-.1223737.6330802-.3165565.1854195-1.2118782-.4476685-.8953341z"/><path d="m4.0921503 5.0493014h.285705c.092156-.00347.1833481.00103.274914.010292.061194.00769.1235908.02005.1858907.032283.1833155.032545.3656946.072148.5480259.1106215.148659.030897.2983732.056474.4469045.087969.1921552.053416.3841335.1074013.5785871.1518616.099657.027723.2032643.035957.3043817.055535.024643.00477.048435.013269.072931.018748.1260446.028195.2526665.053752.3788201.081454.5064111.1009872 1.0121489.2062522 1.5212768.2928641.1845858.026982.3675637.063713.5532695.082389.196534.021479.390126.062197.584427.098608.8896894.1495758 1.7846904.2657877 2.6798204.3773527.702382.087521.826155-.9057973.123773-.9933183-.874912-.1089904-1.749672-.2225956-2.619396-.3679392-.2232625-.0417586-.4462451-.0869296-.672253-.1110511-.1619856-.0144992-.3208258-.052618-.4820719-.0729139-.4934453-.0836142-.9834033-.1864469-1.4742731-.2837215-.2492508-.0546697-.4984377-.1081656-.7492807-.1542097-.1997475-.0448202-.3955238-.1048999-.5938999-.1552093-.1484431-.03105-.2977629-.0576239-.4463727-.0878571-.1896107-.0399991-.3794368-.0797782-.5699054-.1149836-.0898916-.016518-.1797708-.0348068-.270665-.0444762-.1247158-.0124407-.2495254-.0188278-.374904-.0152982-.095235 0-.1904701 0-.285705 0-.7078139 0-.7078139 1.0009999 0 1.0010002z"/><path d="m13.773997 4.6745559c-.203113-.1221245-.444144-.1217134-.672747-.1063829-.238083.015648-.450595.1212339-.655315.2349725-.245144.1225187-.451809.299117-.643269.4924631-.138986.1552869-.250343.3350498-.329174.52803-.04523.1107305-.05185.1471356-.08275.259392-.03135.1813925-.06053.3682783-.05486.5533464.0013.041257.0056.082363.0084.123544.03441.2308471.129064.3936571.32777.5257247.09043.060105.154109.070297.258545.1020585.167442.035488.339211.036037.509566.03679.13899.0002124.278017.00391.414481-.028791.0515-.012343.101094-.031611.151641-.047416.186633-.067473.360693-.1593797.519572-.277757.129934-.104299.237355-.2353561.309706-.3860911.06231-.1298072.07806-.1945862.119471-.3264513.07009-.2758549.10498-.5597719.09371-.8441219-.02517-.1802112-.07552-.3594418-.207721-.4934038-.0423-.04286-.08837-.084934-.142858-.1105654-.07947-.037383-.168309-.05026-.252464-.07539-.04314-.0007409-.0867-.00828-.129404-.0022-.07889.01125-.156957.029783-.232926.053851-.05324.016867-.10284.043722-.152937.068398-.123853.061004-.23836.1380495-.352881.214518-.185215.1328434-.36384.2840911-.484565.4805437-.02917.047476-.05182.098665-.07774.1479981-.100309.2262196-.128193.4712362-.140507.7155894-.0036.2337692.0449.3839165.197089.568565.06783.082296.147093.1264198.233903.1849289.186394.0999.392134.1618962.604144.1704012.04315.00172.08635-.00116.129527-.00172.06076-.010946.123436-.014163.182284-.032834.253204-.080341.464003-.2559119.631592-.457064.03576-.042925.06717-.089297.10076-.1339448.111512-.1681511.202602-.3512171.249383-.5484741.02683-.1131477.0307-.1703895.04384-.2817325.02276-.2642296-.04204-.5167852-.146929-.7565911-.07811-.1540256-.189374-.2971882-.348004-.3757166-.03945-.019529-.08042-.035825-.120631-.053738-.179776-.061517-.369673-.068209-.557728-.065195-.312623.017679-.545724.1532067-.797236.3234896-.237138.1628127-.428414.3800203-.604725.6047597-.21719.311934-.384176.6536849-.518183 1.0083755-.248296.6628347.689094 1.0139778.93739.3511431.09676-.2613631.219489-.511783.371562-.7457717.109853-.1438995.229505-.2851391.377506-.391214.204598-.1406075-.06493.043537.13591-.090271.01-.00665.01862-.01534.02912-.021119.01513-.00832.03198-.013142.04737-.020955.0057-.00291.0098-.00878.01576-.011081.0097-.00373.02032-.00445.03049-.00666.05842-.0027.03643-.00287.101675-.000164.0061.0002545.07005.00793.08104.00519.0022-.0005556-.0034-.00311-.0052-.00466-.02194-.013346-.07961-.041875-.09247-.096637-.000662-.00279.0039.00419.0059.00628.03882.069661.05927.149956.06258.2292273-.01387.1370568-.02776.229888-.1058.3497786-.03069.04437-.05197.078539-.0884.1182299-.0171.018627-.03638.035117-.05442.052834-.01007.00989-.02566.016526-.0299.029991-.0036.011322.03402.00309.03271.014068-.06529.00773-.108969-.00333-.172388-.018288-.0064.00458-.0073.003-.0028.013282.01212.027533.02797.053472.03819.081764.0056.015497.0074.032218.0089.048622.000793.00841.0062.022926-.0019.025283-.0077.00225-.0014-.016081-.0021-.024122.0049-.1090928.0113-.2191877.04035-.3250049.02903-.1070004.139593-.169831.219956-.2358792.04997-.033665.102149-.069754.153799-.1010746.02328-.014118.0473-.027002.07089-.040593.01299-.00748.04858-.011216.03886-.022617-.01564-.01833-.05184.00773-.07185-.0079-.04931-.020955-.101851-.035524-.147928-.062862-.05898-.034995-.121777-.1111954-.135559-.1802151-.000209-.00106.0021.0003704.0032.0005556.000979-.00595.002-.011893.003-.017841.01685.1658647-.02404.3340923-.05123.496611-.01335.045468-.02303.092103-.03911.1366774-.005.013885-.01439.026001-.01883.040076-.000608.0019.0062.0008996.0053.0027-.0045.00934-.02467.027595-.03219.034842-.06348.062202-.157681.084803-.235139.1237022-.0084.00565-.01501.015346-.02494.017291-.06804.013324-.140275-.00313-.208848.00358-.09179-.000344-.183667-.0009525-.275241-.00799.08637.047716.173777.140783.171324.2450002-.02265.00805-.0045.00292-.0024-.058838.003-.087986.0094-.1758645.02061-.2632017.02956-.1243904.07955-.2432298.160324-.3435939.126447-.1328727.251636-.2377306.417671-.3192328.05595-.032106.112104-.060805.170135-.088771.0085-.00412.01535-.01233.02464-.014261.01629-.00339.03298-.00441.04947-.00661.0436-.00506.04607-.00658.09271-.00629.01511.000095.05009.016343.04527.00204-.0071-.020979-.05023-.00889-.05983-.028842.606945.3641672 1.121956-.4941832.51501-.8583504z"/><path d="m12.092335 6.9207416c-.06232.067817-.119138.1403559-.175622.2129806-.06335.088605-.114298.1847022-.174997.2749926-.09555.1377876-.185854.2791423-.281502.4168613-.162613.2334924-.34267.4534855-.527195.6697798-.282497.3289768-.589667.634697-.901605.9353621-.3017584.2748904-.6242545.5258861-.9367086.788459-.2937111.246677-.6023428.474207-.9105191.702169-.3120848.216059-.6255131.43086-.9495047.628787-.2057553.124999-.4234248.227978-.6429867.325961-.2583875.112417-.5250365.203745-.7915507.294575-.2505761.08098-.4925071.185656-.7443335.262785-.6762906.208881-.3808881 1.1653.2954025.956419.2607543-.08104.512931-.185241.7718398-.271718.2956486-.100759.5911258-.203015.8774832-.32836.2584734-.115917.5145265-.238032.7566266-.385838.3486804-.213684.6870398-.443916 1.0223553-.677887.3247697-.240292.6497558-.480491.9592077-.740578.3298312-.277212.6708282-.54161.9874032-.834098.335445-.3233986.665163-.6528786.968802-1.0068152.205892-.2418921.406747-.4880049.588176-.7490481.09891-.1431123.193177-.2893425.292083-.4324504.03654-.055308.0708-.1102296.104056-.1674161.01281-.022024.02884-.042082.04144-.064224.0024-.00429-.0064.00753-.0096.011298.03037-.041834.07013-.079476.09843-.122641.0023-.00353-.0063.00564-.0094.00846.5005-.5005001-.207314-1.208314-.707814-.7078139z"/><path d="m5.7024542 10.971052c-.1355744.142695-.2676213.288787-.3982366.436075-.1779436.191668-.3443271.393269-.5032353.600877-.134587.184595-.25091.38145-.3647334.579228-.129004.230934-.1909774.482278-.02753.727103.1214816.181965.2287826.20277.4030022.273606.2519283.07591.5107512.125122.7649284.191999.036303.01046.072506.02126.1089089.03137.1170887.03251.115547.02811.2204611.06407.098917.03391.1958528.07346.2925511.113112.1989913.08281.403547.154229.6177582.185157.068537.0099.137681.01499.2065216.02249.3898402.02958.781032.03339 1.1718009.03625.7077951.0052.7150883-.995817.00729-1.000974-.3594512-.0026-.7192449-.0059-1.0779606-.03115-.08798-.0079-.1332167-.0088-.2145636-.02553-.1151312-.023653-.2234657-.069538-.3321539-.112846-.2443633-.099584-.4923909-.187811-.7489793-.250804-.2291119-.058927-.4607491-.107692-.6892861-.169129.029014.05788.095237.09166.12354.149893.077362.159177.054693.203314.017629.350019-.0003439.0013-.00206-.0019-.00311-.0028.00892-.01752.017851-.03503.026776-.05255.092224-.160254.1856544-.320169.2927768-.471089.1435863-.188665.2954056-.37063.4567699-.544409.1341734-.151526.2707939-.300819.4090887-.448526.4606391-.537412-.2993768-1.188854-.7600159-.651442z"/><path d="m4.383877 11.196418c-.1253694 0-.250739 0-.3761087 0-.2911059-.0086-.5812044.01403-.8691131.05555-.045719.0096-.092413.01546-.137156.02892-.2207948.06643-.4437384.187477-.5843001.376072-.042643.05721-.072602.122871-.1089031.184306-.1033503.246172-.1216017.511353-.1280921.774735-.00313.179202.025883.353431.081059.523313.049331.146756.1482348.263937.2438851.381881.064276.07218.1286187.146287.2062993.204752.085763.06455.110817.07391.2004679.121754.2140091.106292.4515239.132341.6864078.14949.1842476.0082.3697769.01652.5536647-.0032.048575-.0052.096783-.01341.145175-.02011.2853036-.04996.4926589-.140593.6945336-.360383.1222902-.133143.1642816-.242121.2429825-.398879.1043178-.274205.1781074-.569115.1623941-.865078-.00265-.04991-.010684-.09938-.016029-.149071-.05277-.20913-.127422-.360856-.3093804-.488996-.1291209-.09093-.2768576-.132077-.4260996-.172484-.2055817-.05211-.4180811-.05681-.628863-.06061-.2306674-.01086-.4591711.03567-.6666584.137665-.045581.02241-.088795.04934-.1331928.074-.050124.03875-.1045094.07253-.1503712.116242-.1837523.175126-.3127915.39989-.3987771.636636-.016674.04591-.029509.09312-.044264.139675-.010546.05007-.02733.09922-.031636.15021-.02012.238206.022985.448051.1658351.644607.1086623.149516.1897108.182439.3398457.279114.069558.0269.1371687.0595.2086731.08068.2234761.0662.4635884.07244.6846094-.01031.2156135-.08072.2624645-.154063.4227936-.305321.046234-.06826.096777-.133797.1387017-.204789.1091261-.184786.2066817-.457734.2176198-.673359.00327-.0645-.00431-.129087-.00647-.19363-.016341-.06254-.024876-.127667-.049022-.187632-.075302-.187019-.2113955-.320337-.3917368-.405753-.1066419-.05051-.1719405-.05175-.2871179-.06935-.05395.0018-.1086278-.0037-.1618509.0053-.2515275.04256-.4658765.191364-.6139849.396464-.037014.05126-.065806.107978-.098709.161966-.1115798.240969-.194011.505076-.1495047.773671.00979.05912.031664.115592.047496.173387.02755.0531.049218.1097.08265.159312.086415.128235.2395045.262847.3901842.309838.07492.02337.1534393.05678.2310582.04519.1377966-.02057.2628966-.09235.3943451-.138527.068683-.08349.1507863-.157549.2060495-.250468.049835-.08379.07662-.179686.1052172-.272888.057923-.18878.080614-.42692.057471-.623589-.0077708-.066037-.0260377-.130451-.0390594-.195695-.0395433-.078135-.0697021-.161776-.1186294-.234404-.1299713-.192929-.3520617-.302653-.5780056-.330308-.1689179-.02067-.2314238.0052-.3944215.03787-.06194.02584-.1264798.04617-.1858179.07752-.203191.107373-.39483.298596-.5189249.491101-.03582.05557-.064585.115379-.096877.173068-.1324798.28623-.1666158.599595-.1838441.9106-.00228.226593.037562.39548.1788733.579581.059661.07772.1116999.110438.1884293.170663.213696.140247.4503486.189886.6999166.219189.1768662.01105.3557844.03255.5323175.0051.041926-.0065.082728-.0189.1240915-.02835.2932245-.09766.4665578-.281112.6526434-.515552.1546686-.226019.2351921-.490479.2663278-.761164.019267-.167497.014692-.256812.014171-.42015-.011351-.07752-.016928-.156143-.03405-.23263-.0587613-.262511-.1959107-.503169-.3850211-.69349-.0424945-.042767-.0900078-.080235-.1350116-.120353-.1369166-.114789-.3002063-.181484-.464185-.245981-.6613795-.252147-1.017968.683185-.3565885.935332.058459.02085.1192541.03724.1712629.07232.1013318.07449.176974.166427.2026227.292531.0008202.05851.00439.189636-.00103.250693-.0091.10228-.031254.205348-.064095.302591-.036554.04664-.0714.09509-.1124815.137939-.00827.0086-.032868.02364-.021897.02837.00561.0024.012208.000037.018312.000056-.0031.002-.00894.0022-.00929.0059-.0003175.0032.011425.0048.00822.005-.097847.0062-.1971051-.01131-.2947837-.01293-.054186-.0056-.1091779-.0098-.1624287-.02208-.022712-.0052-.043577-.01733-.06648-.02163-.00212-.000397.00101.0042.00148.0063.018611.02499.035373.0559.044627.08489.029476.09232.00791.07655.00361.0315.00862-.167644.019886-.337657.070459-.498758.038581-.09527.082272-.132163.1465246-.207126.013597-.01586.011618-.01373.013438-.02939-.00424-.02505-.016269-.02213-.037344-.04072-.069291-.06112-.074959-.07607-.088733-.166431.04721.05836.00639.209534.00122.276317-.00101.01314-.00822.03787.00489.03924.024297.0025.043998-.02124.065997-.03185.082968-.01252.1649968-.03704.248902-.03756.095857-.000608.1533168.08411.1722028.164166-.00233.02549-.0028.04615-.010859.04174-.00657-.0036-.00354-.01485-.00276-.0223.00561-.0538.024858-.105501.040161-.156948.00148-.0061.021585-.05347.015002-.05651-.025569-.01182-.084799.01908-.1156372-.0012-.095603-.04413-.1717093-.133948-.1669664-.243352.01284-.02057.017653-.03425.00932.02407-.013584.09504-.060172.178878-.088575.269268-.0018.02379-.00705.02115.011441.03665.0072.006.028617.0084.023143.01607-.011893.01659-.1038466.0011-.1267804.0024-.029067.02025.016013.05725-.00517.102141-.00477.01012-.0087.03959-.014716.03015-.00806-.01263.00366-.02974.0055-.04462.019336-.06811.038676-.13863.072086-.201596.012562-.02368.029346-.04492.042346-.06836.052987-.09553-.020492.02021.025519-.05056.03058-.02097.099827-.06384.1363967-.07115.042743-.0085.1017966-.005.1421487-.0047.130851.0022.2633811.000873.3920371.02789.018277.0045.036601.0088.054834.01353.01393.0036.03498.02401.04165.01127.00681-.01301-.021937-.01968-.031347-.03096-.039533-.04737-.068578-.101212-.066938-.16446.014721.03704.00842.01544.00828.08563-.0002616.123589-.030815.245419-.06705.362876-.010387.02559-.020534.05128-.031165.07677-.00703.01686-.020323.03207-.021818.05027-.0005821.007.018762.0061.016648.01276-.011173.03517-.1221499.05497-.1426583.05872-.1598491.02611-.3210653.02513-.4825264.01518-.1003607-.0068-.2043843-.0098-.3004445-.04175-.0068-.0028-.013134-.0074-.020415-.0085-.00235-.000371.00433.01227-.0046.0045-.022347-.01951-.041251-.04298-.062272-.06384-.021833-.02673-.04587-.05284-.067088-.08018-.00482-.0062-.011515-.02669-.013787-.01916-.00291.0096.0081.01848.011091.02809.0003969.0012-.00206-.0016-.00311-.0024-.00613-.01335-.00749-.02859-.01384-.04183-.00114-.0024-.00193.0102-.00233.0076-.00721-.0468-.00655-.09486-.011316-.141907.00151-.07015.00338-.140161.00953-.210102.00358-.04065.012298-.08076.015306-.121461.0004233-.0059-.0019-.0116-.00284-.0174-.028477.01975-.041349.03018-.041727.02109-.0000773-.0019.054591-.05257.055511-.05291.021775-.0081.045201-.0108.067802-.0162.2394593-.03631.4810247-.05218.7232552-.04487h.3761086c.7078139 0 .7078139-1.001 0-1.001z"/><path d="m5.0754081 3.264281c-.1700432.1037584-.3430275.2024163-.5118034.3082297-.1593445.0977816-.3053479.2137461-.4495128.3321662-.1399222.1200869-.2376702.2778212-.2795526.4579297-.01088.046783-.020783.094384-.022034.1423993-.0018.068797.00864.137369.012964.2060535.019524.063977.034101.129677.05857.1919303.040254.1024128.1124427.2167546.1697826.3102578.086214.1405867.1797603.2753591.2748476.4100254.090879.130302.1912953.2531083.2934928.3745219.4572267.5403186 1.2213526-.1062977.7641256-.6466163-.0841494-.0987282-.165826-.1993955-.2402718-.3057866-.0822708-.1161894-.1621157-.2324669-.2375215-.3532359-.019682-.031521-.038975-.063285-.058835-.094694-.00838-.013256-.013647-.029481-.025884-.03929-.00382-.00306-.00477.00854-.00715.012809-.00317.015671-.00495.031691-.00951.047017-.00378.012711-.054583.063268-.064315.069956-.00332.00228.00458-.00662.00687-.00994.1113311-.0915564.2225045-.182876.3461983-.2577433.1594262-.1002652.3233795-.1928657.4839141-.2913462.6113947-.356647.1070198-1.2212897-.5043749-.8646427z"/><path d="m10.659603 4.600712v.5591969c.002.1856054-.0044.3713665.0041.5568264.01327.1733185.07104.3330401.155296.4835142.02274.047766.0606.087038.08504.1335883.0034.00652-.01277-.010255-.01336-.017597-.03216-.400237-.07445-.2827459.0103-.4648348-.236289.153833-.490439.276946-.741227.4048805-.05891.030297-.117815.060593-.1767222.09089-.6294426.3237357-.1716103 1.2138988.4578302.8901626.05795-.029807.115903-.059614.173855-.089421.332839-.1698752.675228-.3302352.969033-.5645123.0567-.065225.145619-.1127903.170098-.1956755.12325-.4173337.07733-.4500809-.07374-.6978687.0024.032798-.0097-.030058-.01684-.026657-.01225-.1671457.004-.3359091-.0027-.5032962 0-.186399 0-.3727979 0-.5591969 0-.7078138-1.001-.7078138-1.001 0z"/><path d="m2.8830659 1.7315205c-.1424694-.0015-.2840417-.0031-.4239548.030575-.06276.015105-.1232742.038358-.1849112.057537-.2809003.1177572-.559371.246684-.8107117.4199275-.1822175.1361517-.3023556.3222092-.3585838.541813-.00989.03863-.015385.078254-.023078.1173811-.029863.2298604-.055209.4604596-.079908.6909776-.0228121.221483-.029024.4441997-.0324047.6666852-.005688.1760243.00305.3519085.0225991.5268145.0243401.1497764.069539.2998737.1532681.4280836.020447.031309.045152.05962.067728.08943.1053304.1208066.2325263.2140415.3796948.2782038.043365.018907.088661.03303.1329913.049545.2261383.071402.4573491.1239976.691618.1598507.1558607.023268.31354.02432.4707393.025061.164774.0001128.3295478-.0005027.4943213-.0008995.228564-.0092.4379531-.09612.6420236-.1912205.174186-.0802047.3227938-.2025446.4633455-.3308204.1731375-.1621631.2915557-.3633126.3870721-.5779415.0789869-.1803667.1187789-.3733059.1476129-.5670354.0198094-.1421371.0248074-.2857.0270423-.4290116.003519-.1216776.0005556-.2422017-.0116761-.3632388-.0215741-.1680916-.1055195-.3132293-.1972196-.4516747-.090678-.1296212-.2038961-.2414206-.3142641-.3540567-.1241026-.1271976-.2579791-.2430967-.39784-.3524924-.1237231-.1059989-.259221-.1796505-.4132297-.2313989-.1897949-.0519121-.3880723-.0555656-.5835422-.0609063-.1135915-.00254-.2272152-.00237-.3408268-.00216-.087382.0002153-.1747641.0003678-.2621463.0004392-.086407.000053-.1728149.0000569-.2592223.0000587-.1607178.00318-.3162274.043652-.4695326.088318-.212003.0687428-.4034992.1839363-.5940852.2967532-.1564943.0984455-.29397255.2204673-.41989197.3549953-.14174903.166381-.2257254.3640565-.27455301.5747937-.0300108.15435-.0252238.3125007-.0250441.4689642.00066146.1561012.001278.3122025.001572.4683051.00025143.1543465.00029104.3086933.00031221.4630401.008345.1367959.008677.2798892.0499751.412219.0135337.043366.031368.085271.047052.1279059.0803977.1879452.186865.3130939.3701778.4140975.0429833.023683.0904531.038107.13567957.05716.036447.011284.072894.022569.1093415.033853.6787948.2005928.9624761-.7593684.2836809-.9599615-.012156-.00308-.024312-.00616-.036468-.00924-.024278.011554-.00318-.000926.035139.042996.011856.013586.022341.028424.031673.043853.00757.012515.024995.052897.018827.039635-.00673-.014473-.013533-.028914-.020516-.043267-.00342-.00703-.00713-.013912-.010688-.020865.00348.014785.00752.02945.010442.044355.00123.00627-.004-.012158-.00535-.018402-.0025781-.0119722-.004277-.0241219-.0064201-.0361829-.0075383-.0424262-.0091123-.0853038-.0115465-.1282843-.0000199-.154936-.0000601-.3098718-.0003122-.4648076-.0002963-.1558798-.0009022-.3117582-.0015716-.4676367-.0001112-.0849366-.0006853-.1700885.0021617-.2549205.0057353-.0402989.0188269-.0775885.0368253-.1139433.0542782-.0659818.1221157-.1160053.1897013-.1674419.1197443-.0709869.2384775-.1458036.3679178-.1981163.0632-.019187.1250973-.033889.189622-.045661.00143-.0002614-.00273-.00101-.0041-.00151.086676-.0000019.1733511-.0000058.2600267-.0000593.08771-.0000722.1754198-.0002251.2631297-.0004498.1040622-.0001886.208135-.0003968.3121808.0018.069176.00183.1383022.00392.207382.00818.030371.00188.06064.00739.091056.00649.00103-.0000309.0003175-.00206.0004763-.00309.053516.016079-.010398-.012679.00727-.00414.038147.018431.06822.05085.10278.074307.1052605.081193.2048809.1677728.2976798.2631768.066991.068292.1354661.1360186.1967619.2094262.005.00735.038648.057187.03885.056435.00285-.010615-.00459-.021733-.00413-.032714.0001881-.00452.00254.00869.00381.013036.000635-.00702.00138-.028102.00188-.021069.00527.075663-.00314.1523101-.0000984.2280674-.00143.1002443-.00383.2007484-.01678.3002862-.014896.1072031-.033402.2149335-.076404.3149613-.034671.088488-.078406.168184-.1451504.2368765-.064099.059652-.1297226.1215503-.208829.1604653-.046549.021714-.093492.04778-.1417981.065604-.018537.00684-.037927.01121-.056448.018095-.00273.00101-.019024.011208-.023164.013769-.1624894.0003704-.324979.000979-.4874691.0008996-.1087254-.0004483-.2179211.0007688-.3259108-.0138706-.1713318-.0253074-.3398272-.0645949-.5060196-.1133586-.015415-.0047-.030633-.010099-.046246-.014092-.025243-.00646-.0007593.012853-.015944.0007143-.0061-.00488-.011088-.01111-.01748-.015597-.00134-.0009525.00118.00305.00178.00457.008.013721.021643.033851.024658.050509.00269.014859-.028157-.061714-.021288-.045605-.017265-.1306219-.018567-.2627688-.015786-.3943027.00282-.1919684.0076-.384175.026853-.575319.022062-.2071878.046305-.4142063.069955-.6211856.00101-.00957.00329-.019087.00303-.028705-.000508-.019304-.05643.053948-.028548.010499.1655514-.1259923.3687329-.1944496.5523664-.2885187.026103-.011126.050613-.027782.078532-.032847.068813-.012486.1411665.00315.2104704-.00278.7078139 0 .7078139-1.001 0-1.001z"/><path d="m13.58936 4.0490862c-.246087-.079915-.509225-.087822-.765741-.1016106-.169636-.00628-.33937-.020868-.508289.0052-.136147.021005-.181003.042595-.30855.086533-.168893.074765-.329677.1752825-.458571.3091429-.07892.081957-.08922.1038262-.151371.1932617-.07523.1228878-.149499.246172-.219278.3722341-.095.1790713-.180643.3629752-.256244.5510164-.08699.1894647-.121492.3926888-.13958.5985862-.01482.1693037-.01298.3376668.01479.5052515.05638.2456315.18739.3835424.390356.5196213.128492.090867.272917.1521293.421986.199495.154402.046368.312483.073818.47249.09121.174493.01393.348981.027221.523832.035756.127405.0005556.253931.014346.38083.023686.133695.00882.267698.010784.401637.012105.231217-.012803.434601-.1058101.605737-.2602243.0293-.026435.05555-.056054.08332-.084081.120136-.1207873.220373-.2608583.290172-.4166984.01749-.039053.03204-.07936.04806-.11904.07412-.2221325.08902-.4563147.09788-.6884802.0041-.1369266.0028-.2739342.0023-.4108995.008-.2170012-.03288-.430113-.07932-.6408547-.035406-.1484903-.085393-.2928086-.159845-.4264941-.044706-.0802738-.075102-.1195427-.126782-.1927347-.074804-.1090157-.16327-.1760879-.268277-.2528652-.590802-.3898111-1.142079.4457099-.551276.8355211-.01201-.01352-.03815-.051384.006.0005027.06222.084165.102046.1473509.123178.2536267.03174.1405149.06319.2816275.0554.4267546.000423.1234173.0017.2468708-.0016.3702603-.0044.1234601-.01018.2472037-.03285.3689308-.02406.084227-.06435.1404818-.12705.2013153-.0055.00693-.02209.026527-.02084.029214.0027.00587.06452-.0000595.06564.00528-.112921-.00108-.225898-.00249-.338637-.0095-.134978-.00971-.269644-.024175-.405124-.025159-.156018-.0075-.311678-.019627-.467413-.03142-.10057-.010044-.199392-.026602-.29625-.056433-.02711.006-.134759-.062406-.15614-.077128-.01845-.010615-.02421-.014131-.02303-.012319.02898.044528.06659.085086.06862.1416328-.0032.0151-.0011.00833-.0043-.021675-.0074-.069806.0034-.1406535.0041-.2105816.0084-.1089774.02106-.2127295.0721-.3119503.05854-.1493475.12861-.29394.202022-.4364922.05658-.1022307.117003-.201976.176791-.3023682.0027-.00546.0061-.010623.0082-.016375.000688-.00196-.0014-.00453-.000183-.00622.02811-.039425.0743-.065541.112106-.094179.03537-.015362.07917-.039491.118871-.041562.10009-.00522.201167.00956.301212.00918.141446.00747.281445.019286.422257.033634.03004.00306.03233.00798.02503-.0022.657188.2628755 1.028951-.6665296.371762-.929405z"/><path d="m4.6631624 10.65141c-.1114139-.111223-.2461792-.184773-.3982156-.225096-.036862-.0098-.074905-.01438-.112358-.02157-.2740382-.0359-.5518827-.02627-.82711-.01143-.2310572.01641-.4625972.06414-.6617068.187949-.03463.02153-.066409.04735-.099614.07102-.1398902.111823-.2412143.255857-.3214814.413957-.031059.0693-.073052.132142-.1148256.195183-.083323.133482-.1421822.281572-.1959454.429065-.069256.195875-.1053449.402202-.1370109.607011-.024169.160802-.031835.323294-.035188.485655.00127.124456-.00617.24952.0032.373807.00345.04578.00984.09129.014755.136928.032706.198743.083323.396834.1990723.564904.022137.03214.049556.06031.074334.09047.1435003.1555.3366053.219056.5333637.274223.166186.04326.3378164.05506.5087005.06165.1315458-.0025.2621922.0099.3931779.01933.1548651.0095.3101062.01068.4652156.01165.2112195.0056.4237569-.0122.6220052-.09027.042325-.01667.082198-.03899.1232969-.05849.189648-.114806.3391371-.284191.4272378-.488005.015946-.03689.028039-.07533.042059-.112996.066804-.248633.072539-.508079.079256-.763958.00343-.174055.00284-.348157.00243-.522236-.00551-.09117.00634-.18365-.0005556-.274707-.00879-.116287-.013997-.133017-.032387-.235628-.038624-.180369-.08723-.362-.1814597-.522442-.026392-.04494-.058181-.08648-.087272-.129713-.1365462-.16907-.304872-.318358-.5069631-.404337-.043668-.01858-.089401-.03187-.1341017-.0478-.1701583-.0436-.3410521-.0853-.512767-.122562-.2192014-.05069-.4420301-.07991-.6660123-.09811-.052335.0017-.1051806-.0024-.1570053.0051-.302868.04375-.4908732.196721-.6936701.408737-.1106003.125154-.2078195.261716-.276931.414341-.030531.06742-.052078.133435-.076237.202829-.066389.193927-.1096589.394162-.1378557.596862-.031668.209246-.041411.420789-.048418.632027-.00251.133761-.00989.267594.0032.401087.00996.10155.019605.135461.039961.234087.05004.208947.1488025.399079.2638679.578716.1113833.17151.2731343.290911.4479724.390792.05255.0315.1022911.06716.1550492.0984.063405.03754.038074.01678.063324.03838.019698.01206.039814.02346.059096.03618.00167.0011-.00751-.0024-.00592-.0011.070883.05497.1499195.09744.2294657.138037.2022565.08554.4248375.08646.6408381.09167.1886804.01062.3760779-.01357.5629536-.03597.1537933-.02045.3071749-.0635.4387398-.148314.030326-.01955.057524-.04357.086286-.06536.2392119-.430424.2859675-.310646-.1144796-.858082-.031726-.04337-.1005517-.03831-.152205-.05313-.08872-.02545-.1852766-.02712-.2767206-.0325-.1782905-.0088-.3569374-.000767-.5352055-.0082-.1668542-.01908-.3287805-.06918-.4903176-.113505-.1400294-.04267-.2898566-.06635-.42291-.129816-.0019-.01381.022598.01046.020659.0037-.00317-.01099-.016592-.01576-.024434-.02408-.02911-.03092-.055696-.06446-.082114-.09766-.066073-.08356-.1277608-.17125-.1824411-.262712-.0329-.05536-.056432-.09467-.051662-.158754.011045-.01675.0084.02661.016779.02006.00939-.0073.058294-.0687.068413-.07969.127295-.103153.2705933-.184263.4103761-.269073.2096883-.125073.409752-.265777.6191596-.39121.058468-.02456.1193766-.03585.1764678-.06785.039035-.02188.0748-.04914.1122-.0737.144403-.161085.2295745-.212725.1893076-.507634-.0153822-.112717-.0983187-.207123-.1681028-.296919-.0706493-.090908-.2636706-.15284-.3721643-.188718-.1660609-.054441-.3378597-.081134-.5115594-.093813-.1519785-.0091-.3050991-.01238-.4530894.03058-.048009.01394-.093971.03414-.1409564.05122-.2350293.105285-.4241925.283192-.6065252.46066-.104609.107724-.2239957.201624-.3243461.313562-.024931.02781-.04784.05737-.07176.08605-.068209.08529-.1296178.177034-.1652897.281234-.028514.08329-.030186.115824-.042023.196433-.015947.136867-.00938.274082.00761.410378.069577.433192.2305247.240727.9860615.109807.00987-.0017.036029-.242989.041181-.276682.020745-.187932.1329475-.340409.2370391-.491781.1223982-.171158.2729227-.316858.4306514-.454805.073848-.06638.1487411-.132066.231008-.187971.023503-.01597.023918-.01955.019005-.0079.078443-.03596.1635961-.05224.2475399-.06978.061291-.0067.1235726-.02087.1856015-.01914.00717.000201-.014288.0013-.021431.002-.2866671-.01919-.2327534-.007-.4051623-.702656-.0195-.07869.1081151-.121304.1547125-.187639.00786-.01119-.024281.01258-.036305.01908-.053952.02918-.1076682.0588-.1616176.08798-.2616163.125419-.4961293.294438-.7194435.477853-.2423664.210351-.452081.454444-.6565796.700788-.1292676.162352-.2727197.317466-.3681934.503611-.023835.04647-.043076.09516-.064614.14274-.098047.245373-.1374734.506733-.1614757.768185-.017653.164913-.012519.313225.01845.476501.038557.174543.1212268.33792.2550139.459546.028414.02583.059108.04904.088663.07356.1456326.119206.3142966.20151.4858054.275919.1348937.0528.2727015.0978.4107461.141517.1014743.03229.2060989.05175.3077876.0829.1831917.06061.3743886.07852.5658337.08848.2499511.01445.4999845-.01421.7418152-.07824.1614641-.04275.2246516-.07093.3783132-.128991.1976437-.08436.1030433-.04221.2840773-.125821.6421802-.297666.2212173-1.205846-.4209632-.90818-.143106.06663-.069363.03344-.2213587.0993-.2286608.08947-.463211.163439-.7123586.142159-.1108694-.0051-.2216398-.01044-.3275247-.04743-.098035-.02907-.1974423-.05103-.2957012-.07918-.1053837-.03264-.2097987-.06851-.3137513-.10545-.096913-.0416-.194036-.08239-.2748057-.152235.046943.05636-.00369-.0062.00188.006.01016.02227.024033.04264.036056.06396.00295.0052-.00797-.02164-.00884-.0157-.00145.01.01426.0504.00208.01771-.00228-.01138-.00357-.02299-.00685-.03413-.0003572-.0012-.00153.002-.0023.003-.0007302-.0032-.00146-.0064-.00219-.0095-.00102-.05204.00471-.104179.00709-.156076.013663-.156441.03212-.313771.084265-.46283.055605-.15709.1856197-.271703.2836387-.402468.1640627-.198172.3313667-.395419.5231359-.567645.062353-.05179.1182595-.100003.1838087-.147597.1175978-.08538.2456683-.155883.3748241-.221894.109257-.05912.4865396-.242356.468073-.36412-.1080124-.712218-.1221192-.692352-.4411278-.73253-.1430446-.0029-.2854283.0095-.4260146.03728-.1646619.03507-.3289711.07552-.4809535.150214-.032968.01739-.066654.03349-.098903.05218-.1367532.07926-.2532623.190201-.3728782.291865-.219062.194361-.427582.400417-.5956846.641778-.075787.11192-.1301573.186894-.1959038.307435-.1031391.189098-.1768479.392871-.2049791.60689-.00515.03766-.01089.07525-.01545.112987-.0021.01737-.01486.03818-.00452.0523.00846.01155-.00148-.0401.012805-.04099.9605097-.05992.8670599-.320143.9650872.06129.0004471.0017-.0009049-.0035-.00136-.0052-.00719-.05234-.012118-.103793-.00737-.156795-.020202.04313-.068374.113744-.00309.02052.020274-.03846.073735-.07942.1029343-.107298.069927-.06675.1402004-.133141.2098502-.200183.089217-.08749.1800639-.175638.2816413-.248529.00185-.004.00646-.0075.0059-.01182-.0002151-.0017-.00548-.0034-.00378-.0035.049459-.003.099511.0042.1489628.0038.092927.0056.1843209.01857.2731801.04795.015539.0047.030449.01263.046617.01415.00491.00045-.00656-.0074-.010181-.01073-.017187-.01589-.040413-.02673-.05222-.04694-.047483-.08127-.1169368-.160022-.123553-.253916-.00839-.119067.037512-.23766.081084-.348785.016468-.042.062592-.06497.093888-.09746.084875-.04964.045896-.03329.1046729-.05372.00813-.0028-.016259.0056-.024413.0084-.091062.03068-.1811363.06317-.2636141.113785-.2096418.12701-.4120328.265688-.6216864.392739-.2282546.138628-.4632728.273247-.6479081.46977-.2070574.244861-.3340599.469128-.3253917.802142.0048.04298.00752.08624.014407.12893.026889.166665.094229.321238.1807363.465007.079183.127767.1633282.252889.2580489.369764.1330507.162886.276807.319473.4716039.409133.1782937.07338.3633908.127771.5504285.174248.235617.06464.4728109.13371.7180061.148489.1722247.0059.3445415.0021.5167966.0074.016706.000847.033405.0018.050114.0025.076745.0035-.016039-.0009-.032122-.03071-.3049735-.565394-.3118683-.384538-.065123-.792117.034962-.0224.032602-.02403.068858-.03672.017484-.0061-.082707.04078-.066896.02106-.1397397.01675-.2792696.03872-.420447.02913-.062705-.0014-.085173-.0015-.1468496-.0044-.021921-.001-.04383-.0024-.065732-.0038-.015502-.000979-.031027-.005-.046476-.0034-.011406.0012.057831.02728.028908.01866.013383.01756-.029411-.01426-.037748-.01947-.035596-.02223-.068188-.04895-.1028478-.07261-.00734-.005-.015364-.0089-.023048-.01337-.092829-.05943-.187533-.115914-.2806886-.174888-.035204-.01911-.072903-.03307-.099045-.06326-.051097-.07664-.097104-.157089-.1251437-.245273-.010917-.0457-.02354-.09311-.025133-.140399-.00281-.0834.00432-.167123.00403-.250514.00574-.177507.012893-.355368.039992-.531157.017473-.137148.048182-.272118.09186-.403399.03401-.09933.062261-.18336.139019-.261403.054487-.06224.013742-.01708.063564-.0693.00571-.006.01751-.01.016846-.01823-.0005292-.0065-.083527.0058-.041395-.01136.1803596.01411.3596296.03772.5359993.07907.1394052.02936.277191.06601.4162734.09678.051479-.0085.096532.05268.1325528.08063.065581.065.075489.164999.098778.250361.00374.01994.00574.04029.011224.05982.0005027.0017.00476-.0042.00491-.0024.00725.09125-.00523.184083.0005556.275461.0003704.16472.000979.32946-.00212.49416-.00392.155295-.01148.310493-.025479.465107.0007673.04109-.037187.04763.023746.03345-.0006614.000582-.020137.0184-.021214.01881-.083502.03153-.1774825.01771-.2640232.02118-.1333365-.00082-.2667852-.0016-.3999436-.0091-.1424575-.01015-.2847361-.02312-.4277487-.0212-.092137-.0032-.1847307-.0073-.2754106-.02517-.006-.0017-.098003-.03188-.1096828-.03069-.00529.000529.00843.0065.012427.01002.025479.0224.019188.01728.042528.04603.0077.01584.015854.03148.020042.04884.0007673.0032-.00525-.0043-.00643-.0074-.018785-.04877-.031035-.100697-.041967-.151629-.01833-.123038-.01061-.24757-.011052-.371605.0023-.118321.0067-.236821.023834-.35409.021532-.142069.043453-.286679.090421-.422477.024537-.07239.054453-.144581.087525-.212339.065699-.09915.1290548-.200032.179464-.308023.00871-.02913.014698-.02769.030082-.05403.000635-.0011-.0019-.0016-.00285-.0024-.00196-.04194.190519-.05423.2120902-.05713.2004333-.01158.4022577-.01863.6025589-.0014.00624.000291.021217.0066.018714.000873-.00565-.01291-.024916-.01364-.03558-.02286-.015825-.01368-.026842-.03627-.047106-.04147-.019389-.005.029099.02751.044149.04071.00317.0028-.00564-.0063-.00846-.0094.5005001.5005 1.2083139-.207314.7078138-.707814z"/><path d="m1.5337466 14.005723c.00156.179743.079402.339956.1695097.490642.072202.113026.1708297.200149.2807257.274735.077119.05027.1890079.09401.3168718.125212.1195158.02383.2401724.04152.3613382.05451.097051.01001.1945468.0139.2920521.01537.1075592.0011.2149821.0016.322391-.0042.1158423-.01645.2394051-.02176.3508823-.06139.047513-.01689.092639-.03986.1389591-.05979.1512136-.07736.2752447-.192866.3929833-.313028.046598-.05706.1029176-.103856.1494006-.161128.049759-.06131.052559-.07097.094394-.139055.067299-.149904.1678818-.333398.024609-.504062-.1337654-.159338-.3566242-.224688-.5563917-.282781-.067973-.01977-.2867544.115339-.3594421.158751-.052376.02915-.1011332.06392-.1554583.08939-.6289857.324619-.1699051 1.214139.4590807.88952.072267-.03841.1432724-.07798.212703-.121349.016126-.0098.032236-.0197.048378-.02952.0086-.0052.035897-.01638.025858-.01561-.034259.0026-.069676.03575-.1008463.0213-.3268934-.151557-.7009349-.270185-.4656714-.705639.00375-.0043.00719-.01433.012269-.01181.00127.000635-.0007938.0028-.00177.0039-.00864.0094-.017941.01826-.026895.02741-.065039.06645-.041341.03895-.076256.08118-.040736.04188-.08134.08773-.1280716.118939.013467-.0033.026755-.0075.040403-.01003.00143-.000264.00538.0016.00396.0019-.04917.01097-.099839.0178-.1497192.02414-.079665.0099-.1614464-.0021-.2414942.0021-.06719-.000874-.1343835-.0032-.2012813-.0099-.080033-.0083-.1594411-.02028-.238719-.0338-.013421-.0025-.051544-.01677-.039781-.0098.066687.03936.086362.03496.0054-.0016-.011569-.0052.021667.01324.032501.01986.03466.02748-.018563-.01488-.016974-.0123.00835.01353.023922.02099.035138.03227.00457.0046.01672.01978.01211.01522-.015884-.0157-.026271-.03654-.00401.002-.014737-.01218.00243.0028-.022568-.03931-.013289-.02238.02311.0961.00444.07796 0-.707814-1.001-.707814-1.001 0z"/><ellipse cx="2.740582" cy="3.898973" rx="2.316781" ry="2.740582"/><ellipse cx="13.151969" cy="5.707192" rx="2.246147" ry="2.373288"/></g><ellipse cx="3.305651" cy="12.586901" rx="2.359161" ry="2.500428" stroke-width=".278326"/></g><g stroke-width=".264583"><path d="m5.2350145 3.197402c-.1498494.1123987-.3072971.2138738-.4589877.3237148-.1254985.0880578-.2495974.1774145-.36078.2831457-.0721188.0646927-.1416741.1325676-.2156447.1952863-.1618044.1344803-.2424613.2704891-.2987061.4710623-.032749.1849551-.0052.3607551.1056928.5163269.030159.042311.072036.0749.1080545.1123498.029106.025823.056101.050359.084471.076973.00881.00826-.018762-.015602-.025837-.025387-.018486-.025561-.034262-.052981-.051393-.079471-.0063-.01538-.018627-.062758-.018899-.04614-.0003968.023857.012274.046115.018521.069143.015655.057712.028723.1154295.042666.1735609.028726.1032449.062111.2051886.098183.3060618.024728.07106.053555.1404686.083443.2095222.030768.068591.073926.1297218.1171242.1907069.00946.013361.019349.026421.028676.039878.00311.00449.012533.017762.00863.013938-.00542-.0053-.00885-.012322-.013272-.018481-.032809-.061722.044208.101305.047144.1086771.2797675.6501783 1.1992583.2545299.9194927-.3956482-.0293397-.066829-.0443823-.089867-.0702763-.1586095-.0473514-.086986-.0342783-.0692393-.0799541-.1355728-.014632-.021251-.052278-.087236-.046079-.062192.00164.00663.00465.012835.00697.019254-.0235806-.0543193-.046702-.1077826-.0651464-.1643156-.0207354-.0629928-.0439687-.1266283-.0625745-.1909533-.0300418-.1181055-.0546759-.2376447-.0945912-.3531618-.0255296-.0460857-.0478895-.0940753-.0765886-.1382567-.0424471-.0653468-.1079969-.1145741-.1637933-.1676382-.016687-.015187-.061335-.065113-.050066-.045564.017581.030498.05089.049612.069591.079435.061288.097739.079552.192745.051992.3040332-.00709.017375-.0094.024966-.020246.041841-.034553.05375-.068953.065795-.0009525.00792.093023-.080512.1827083-.1646843.2728124-.2484075-.012073.00705-.02.012348.010824-.011615.074926-.058248.1525528-.112785.229488-.1683186.1271609-.0931802.2636415-.1740551.3850122-.2747447.6069454-.3641672.091935-1.2225176-.5150104-.8583504z"/><path d="m4.9928803 5.3883424c.1107509-.00135.2211591-.0006879.3316518.00692.117094.00652.2329865.024045.3497442.03458.1698787.00748.3395305.016147.50926.026669.1339902.00127.2648503.0266.3961315.049683.1708076.039495.3403671.084355.511887.1206515.1434734.056085.2836719.1200516.4254833.1802279.1542822.071112.3144319.1221372.4800775.1587156.1820269.032424.3652639.056697.5483754.082176.3274232.047502.6526815.1085435.9800552.1563211.1392598.021677.2797363.030544.420492.032792.079465-.00411.1574328.00303.2363298.010134.138855.017227.275581.049499.411908.080512.127984.031259.257158.056556.388142.07082.06824.00782.136922.00616.205419.00773.0087.0001992-.01738.0000793-.02608.0001193-.239855-.031849-.366279-.1909874-.40441-.409634-.01935-.1109787.02203-.1169432.03566-.2144914-.07844.088712-.166357.1684682-.250696.2514748-.09453.08815-.194343.1704933-.294493.2521469-.09117.071705-.189935.1330814-.287891.1949564-.07842.048589-.160763.090301-.2427274.1324573-.00778.00363-.015557.00725-.023339.010877-.6388071.3048373-.2077022 1.2082473.4311054.90341.01691-.00815.03381-.016309.05072-.024461.108034-.055798.216323-.1114888.319342-.1763125.131724-.083415.263821-.1670722.385339-.2651167.124653-.1016376.248606-.2045644.36512-.3155362.121296-.1201939.249769-.2344558.353809-.3706861.0638-.092935.10414-.1386403.136183-.2581618.03224-.1202735.03437-.3137207-.04135-.4183018-.07701-.1063625-.189135-.1840608-.297469-.2582725-.03443-.023585-.0812-.019293-.121802-.02894-.06315-.00488-.125846-.00715-.189079-.00891-.09161-.00832-.180932-.031514-.270491-.051467-.17962-.0405-.359776-.082295-.543207-.1011873-.10355-.00931-.207054-.017382-.3111229-.014049-.0975371-.0013225-.1948207-.0068894-.2912907-.0224733-.3295345-.0477771-.6567429-.1103011-.9864201-.1572265-.1585015-.0219922-.3168835-.0433129-.4747876-.0691349-.0616143-.0127555-.029927-.0055059-.0949987-.0220212-.0039343-.0008467-.0082417.0007143-.0120517-.0005821-.0659313-.0222435-.1274506-.0568169-.1933856-.0791668-.2014254-.0854572-.3991432-.1827538-.6115978-.2385552-.1825019-.0374748-.3617844-.0894567-.5443456-.1268809-.1678842-.0291487-.3357176-.0590659-.5067011-.0627309-.1609535-.0099483-.3218236-.0193093-.4829956-.0246962-.123785-.0106045-.2466252-.0304006-.3708506-.0362201-.1328113-.0087339-.2655715-.0110993-.3986537-.0091679-.7078139 0-.7078139 1.001 0 1.001z"/><path d="m10.574842 4.2899242c-.002.1711272.000503.34201.0086.5129501.01106.1627976.01098.3261302.02282.4888323.01248.1146619.04596.2248979.08073.3343058.216279.6739614 1.169404.3680973.953126-.3058642-.0091-.027876-.01961-.056837-.02732-.084787-.0029-.01044-.0035-.021503-.0072-.031689-.000847-.00235-.0011.0049-.0016.00735-.01543-.1511586-.006-.3046071-.0207-.4559742-.0075-.1550074-.0092-.3099329-.0075-.4651229 0-.7078139-1.001-.7078139-1.001 0z"/><path d="m11.638762 7.5998688c-.109506.079636-.212993.1677167-.316051.2555925-.09207.097715-.189749.1896166-.283976.285187-.08192.091588-.170429.1769655-.257792.2632845-.128841.1188958-.25091.2449671-.37425.3695152-.110148.1146945-.211838.2367875-.321823.3516223-.1056096.1032507-.2130657.2045761-.3232757.302922-.1302041.1059322-.2561913.2164556-.3899154.3179796-.1081344.0666086-.2092714.143201-.3059002.2255912-.1157557.1029489-.23501.2017649-.3538675.3010759-.086078.06317-.1672121.133643-.2557981.193386-.1148873.08081-.2348579.153154-.3563429.223405-.166443.09372-.3369061.180093-.5085152.263899-.1301046.0517-.2572575.109996-.3831672.1711-.1226621.05642-.2424181.118537-.362935.179314-.1400127.08095-.2870798.148515-.4342413.215229-.065326.04251-.1425236.06172-.2111841.09695-.09683.04969-.1136322.0622-.1951384.113475-.1734634.10729-.3447994.217979-.5176477.326235-.065996.04408-.1319874.08909-.2018337.127011-.00554.0029-.010639.0069-.016624.0086-.00523.0016.017714-.01162.012327-.01076-.025908.0041-.051348.01079-.07711.01575-.010639.0016-.042603.006-.03192.0047.1098909-.01297.2050565-.0476.3143382.07391.1093208.121556.1417981.294715.206742.444746.010395.02402-.01437.04123.00916.02064.085428-.155065.2007188-.289596.3156553-.4231.1542566-.173175.3111556-.343722.4526548-.527589.1358569-.182984.2542468-.377523.3659825-.575854.038281-.08052.09564-.155888.1215675-.242207.048611-.161839.096299-.382725-.046277-.528576-.1241441-.126995-.3195791-.155008-.4793686-.232513-.089825.0293-.1826366.05066-.2694766.08789-.056177.02408-.1768686.123582-.2238578.163409-.095566.081-.182449.170599-.2695819.260377-.1716574.185476-.3456178.368847-.5139404.557383-.081558.0964-.1714423.186631-.2429163.291253-.060502.08856-.072715.117187-.1205254.207543-.073998.132557-.1245561.274-.1600457.42106-.01941.113879-.044375.230945-.042341.347277.0007408.04266.00449.08521.00673.127813.00911.04156.012351.08486.027345.12468.096994.257543.2548528.370624.495576.470296.1059616.04177.2156732.07397.325574.103697.094442.02415.1885566.04952.2831946.0729.083435.02477.1688113.0453.2498056.07758.061217.01976.1122693.0563.1686301.08686.080906.04251.1630124.08307.2468993.11945.080342.02857.1309071.04418.2064343.07165.098757.02881.089579.02953.1845582.05562.6845457.179994.9390962-.788099.2545506-.968094-.0336-.0049-.06447-.02295-.097862-.02856-.051192-.01848-.1058067-.04003-.1569776-.05222-.05734-.02208-.1111245-.05318-.1657337-.08065-.096029-.04939-.1864651-.110678-.2910559-.142086-.1185175-.04312-.2393278-.07973-.3612775-.111862-.088353-.0213-.1759013-.04579-.2640208-.06801-.073458-.01874-.1464982-.04097-.2172168-.06817-.0035-.000741-.00891-.0054-.010512-.0022-.0009525.0019.014317.01101.027642.02809.047537.06093.089294.12817.090174.208415-.00103.01076-.00159.04297-.00311.03227-.00185-.0129.00132-.02603.00214-.03903.00282-.0439.00639-.08788.013996-.131248.01637-.06807.036998-.133567.075507-.194697.011404-.02302.020135-.04752.033821-.06926.052085-.08273.1281583-.147862.1882052-.224266.1588524-.178504.3239535-.351304.4857803-.52708.061725-.06389.1230654-.126793.1892776-.186059.0137-.01226.028077-.02378.041449-.0364.00368-.0035.014618-.01228.00959-.01177-.051183.0052-.1013971.01744-.1520958.02617-.1376219-.07849-.3082546-.11648-.4128658-.235462-.1301369-.148014-.068354-.265511-.026107-.397272.00238-.0074-.00473.01493-.00804.022-.017433.03722-.046503.08839-.065474.12288-.088953.15807-.1821881.313634-.289719.459999-.1277075.169897-.2774841.321456-.4160472.482372-.1602362.186928-.3169028.378236-.4348591.595591-.023101.0457-.1288741.236684-.1174925.291634.038269.184766.076218.383453.191843.532562.1091592.14077.3455938.118146.4977921.09392.1351122-.02665.2709342-.05679.39022-.129282.079018-.04638.1582515-.09276.2330495-.145809.173338-.108876.3455352-.219579.519531-.32742.019389-.01226.039999-.02277.058167-.03677.00271-.0021-.013311.0014-.010261-.000153.077526-.03944.1633101-.06313.238098-.108685.159676-.07246.319622-.145584.4716949-.233163.1158896-.05851.2309003-.118507.3490513-.172442.1268955-.06159.2557648-.118077.3859382-.17245.192306-.09419.3834834-.190937.5698127-.296566.1459902-.08444.2897257-.172264.4279935-.269003.1109189-.07851.2174086-.163086.3248673-.246181.1244883-.104027.249311-.207641.3706236-.315392.07576-.07229.1693637-.120545.2529771-.182446.1548825-.117811.3017195-.245024.4516875-.368949.12932-.115949.256087-.234681.379299-.3571198.105791-.1107829.20535-.2268913.309601-.3390628.120791-.1219742.240288-.245451.366546-.3618195.0905-.089417.182302-.177836.26717-.2726743.07386-.074965.154315-.1455632.220845-.2264264.100062-.085476.200868-.1702451.307078-.2480255.543757-.4530612-.097068-1.2220507-.640825-.7689195z"/></g></svg>