<svg height="16mm" viewBox="0 0 16 16" width="16mm" xmlns="http://www.w3.org/2000/svg"><g fill="#0ff" stroke-width=".264583"><ellipse cx="3.531678" cy="8.023972" rx="2.599315" ry="7.063356"/><path d="m9.5214039 6.4135274c-.1310716.1855235-.3165316.327864-.4520546.5085615-.05027.067027-.082002.1667624-.1412671.2260274-.033297.033297-.084104.04759-.1130139.08476-.080326.1032758-.119272.2343718-.1977739.339041-.031965.04262-.081048.070394-.1130136.1130136-.1476272.1968365-.2973843.3999838-.4520549.593322-.058086.072608-.075155.1881683-.1412671.2542808-.024011.024011-.060749.032496-.08476.056507-.1419423.1419424.00442.029792-.08476.1412671-.057885.072356-.1398889.1254176-.1977742.197774-.037088.046359.014213.2450904.028253.2825342.022183.059154.052256.115347.08476.1695204.024228.040379.069869.068341.08476.1130139.014891.044673-.014891.096594 0 .1412671.02703.081089.1142373.1166849.1412671.1977739.00894.026804-.00685.05735 0 .08476.035504.1420147.1336638.2673277.1977739.3955477.012634.02527-.00893.05796 0 .08476.018542.05562.085843.11518.1130136.169521.013729.02746.014526.08556.028253.113013.029816.05963.1741787.230686.2260275.282535.029781.02978.083232.02672.1130136.05651.014891.01489.013361.04162.028253.05651.014891.01489.03966.01562.056507.02825.081097.06082.1266452.154898.1977739.226027.033297.0333.079717.05146.1130136.08476.07773.07773.1461921.226967.1977742.310788.096995.157617.2287336.316201.3107875.480308.033602.0672.06017.221058.08476.282535.028698.07174.1412671.181291.1412671.25428"/><path d="m9.5214039 8.3630137c.5671281.1786514 1.1396321.1634312 1.7234591.1977739.390238.022955.932119.067832 1.327911.028253.205012-.020502.414526-.050417.621575-.056507.244757-.0072.489726 0 .734589 0h.197774c.0094 0 .02528-.00893.02825 0 .05921.1776229-.116761.4067873-.169521.5650685-.03673.1101883-.04803.2288529-.08476.3390413-.07583.2274887-.04376.056841-.113014.3107875-.06606.2422355-.1283.4872661-.16952.7345891-.0029.01747.0091.224202 0 .226027-.247197.04944-.521426-.05027-.762843-.08476-.04662-.0067-.09558.01142-.141267 0-.243748-.06094.334234-.0056-.226027-.05651-.692169-.06292-1.395024-.02825-2.090754-.02825-.13203 0-.297895-.03148-.4238012 0-.066685.01667-.1275704.04247-.1977739.05651-.1411772.02824-.2743388-.03645-.3955481.08476"/></g></svg>