<svg height="16mm" viewBox="0 0 16 16" width="16mm" xmlns="http://www.w3.org/2000/svg"><g fill="#0ff" stroke="#000" stroke-width=".264583"><circle cx="9.493151" cy="9.32363" r=".001884"/><ellipse cx="2.175514" cy="1.525685" rx=".819349" ry=".847603"/><ellipse cx="3.995638" cy="1.977841" rx=".819349" ry=".847603"/><ellipse cx="5.334177" cy="3.336357" rx=".819349" ry=".847603"/><ellipse cx="4.135485" cy="4.794765" rx=".819349" ry=".847603"/><ellipse cx="2.53723" cy="5.773696" rx=".819349" ry=".847603"/><ellipse cx="2.017797" cy="7.451864" rx=".819349" ry=".847603"/><ellipse cx="2.697055" cy="9.050119" rx=".819349" ry=".847603"/><ellipse cx="4.195419" cy="10.009072" rx=".819349" ry=".847603"/><ellipse cx="5.813653" cy="10.208855" rx=".819349" ry=".847603"/><ellipse cx="7.292038" cy="9.189966" rx=".819349" ry=".847603"/><ellipse cx="8.151101" cy="7.631668" rx=".819349" ry=".847603"/><ellipse cx="9.689422" cy="6.712671" rx=".819349" ry=".847603"/><ellipse cx="11.14783" cy="7.771515" rx=".819349" ry=".847603"/><ellipse cx="12.106782" cy="9.15001" rx=".819349" ry=".847603"/><ellipse cx="11.64041" cy="10.877569" rx=".819349" ry=".847603"/><ellipse cx="11.866439" cy="12.62928" rx=".819349" ry=".847603"/><ellipse cx="13.137842" cy="13.702911" rx=".819349" ry=".847603"/></g></svg>